<svg width="140" height="112" viewBox="0 0 140 112" fill="none" xmlns="http://www.w3.org/2000/svg">
	<path
		d="M69.8586 106.72C75.1605 106.72 79.4586 102.422 79.4586 97.1203C79.4586 91.8183 75.1605 87.5203 69.8586 87.5203C64.5566 87.5203 60.2586 91.8183 60.2586 97.1203C60.2586 102.422 64.5566 106.72 69.8586 106.72Z"
		stroke="currentColor" stroke-width="0.96" stroke-linecap="round" stroke-linejoin="round" />
	<path d="M79.4586 97.1203H89.0586" stroke="currentColor" stroke-width="0.576" stroke-linecap="round"
		stroke-linejoin="round" />
	<path d="M60.2586 97.1203H50.6586" stroke="currentColor" stroke-width="0.576" stroke-linecap="round"
		stroke-linejoin="round" />
	<path d="M14.7546 104.224L23.7785 95.2003" stroke="currentColor" stroke-width="0.576" stroke-linecap="round"
		stroke-linejoin="round" />
	<path d="M10.3386 108.64L12.2586 101.92L17.0585 106.72L10.3386 108.64Z" stroke="currentColor" stroke-width="0.576"
		stroke-linecap="round" stroke-linejoin="round" />
	<path fill-rule="evenodd" clip-rule="evenodd"
		d="M6.97598 93.3003L7.29345 93.3218L7.56445 93.3834L7.79614 93.4809L8.00664 93.6178L8.17712 93.7792L8.31129 93.967L8.40956 94.1764L8.46891 94.4009L8.48892 94.6439L8.4621 94.9535L8.38044 95.2558L8.24477 95.5517L8.03236 95.8832L7.7678 96.2147L7.40003 96.6134L6.98166 97.0262L6.43854 97.5322H8.5993L8.50971 98.1524H5.55297V97.5662L6.60936 96.5189L6.99677 96.0975L7.26058 95.7744L7.46996 95.4622L7.59317 95.2074L7.66575 94.9512L7.68954 94.6923L7.665 94.4614L7.5962 94.2765L7.48622 94.1272L7.33844 94.0154L7.15401 93.9455L6.92119 93.9201L6.61767 93.9515L6.38525 94.0377L6.18 94.1832L5.95967 94.4164L5.4566 94.0339L5.65542 93.812L5.86858 93.6321L6.09762 93.4896L6.34555 93.3876L6.63583 93.323L6.97598 93.3003Z"
		fill="currentColor" />
	<path fill-rule="evenodd" clip-rule="evenodd"
		d="M17.4446 98.1525H16.5968L16.2661 97.008H14.5672L14.2365 98.1525H13.4231L13.9833 96.3912H14.7323H16.0971L15.4183 94.0169L14.7323 96.3912H13.9833L14.936 93.3967H15.9282L17.4446 98.1525Z"
		fill="currentColor" />
	<path d="M129.763 104.224L120.739 95.2003" stroke="currentColor" stroke-width="0.576" stroke-linecap="round"
		stroke-linejoin="round" />
	<path d="M134.179 108.64L132.259 101.92L127.459 106.72L134.179 108.64Z" stroke="currentColor" stroke-width="0.576"
		stroke-linecap="round" stroke-linejoin="round" />
	<path fill-rule="evenodd" clip-rule="evenodd"
		d="M129.402 93.3275L129.673 93.4058L129.909 93.5328L130.117 93.7104L130.299 93.9447L130.465 94.2694L130.594 94.6708L130.678 95.1644L130.709 95.7672L130.678 96.3742L130.594 96.8704L130.465 97.2737L130.299 97.5991L130.117 97.8342L129.909 98.0119L129.673 98.1392L129.402 98.2179L129.089 98.2451L128.776 98.2179L128.505 98.1392L128.269 98.0119L128.061 97.8342L127.879 97.5991L127.79 97.4253H128.541L128.68 97.5508L128.859 97.6282L129.089 97.6562L129.281 97.6298L129.447 97.5523L129.593 97.4207L129.721 97.222L129.805 97.0092L129.874 96.711L129.922 96.3058L129.94 95.7672L129.919 95.1425L129.868 94.7165L128.541 97.4253H127.79L127.713 97.2737L127.584 96.8704L127.5 96.3742L127.469 95.7672H128.238L128.263 96.4611L128.327 96.9117L129.671 94.1685L129.558 94.0396L129.427 93.9549L129.274 93.9066L129.089 93.8892L128.899 93.9156L128.734 93.9931L128.588 94.1254L128.458 94.3253L128.374 94.5392L128.304 94.8359L128.256 95.2373L128.238 95.7672H127.469L127.5 95.1644L127.584 94.6708L127.712 94.2694L127.879 93.9447L128.061 93.7104L128.269 93.5328L128.505 93.4058L128.776 93.3275L129.089 93.3003L129.402 93.3275Z"
		fill="currentColor" />
	<path fill-rule="evenodd" clip-rule="evenodd"
		d="M139.364 98.1525H138.516L138.186 97.008H136.487L136.156 98.1525H135.343L135.903 96.3912H136.652H138.017L137.338 94.0169L136.652 96.3912H135.903L136.856 93.3967H137.848L139.364 98.1525Z"
		fill="currentColor" />
	<path d="M79.4586 77.9203L72.7386 81.7603" stroke="currentColor" stroke-width="0.576" stroke-linecap="round"
		stroke-linejoin="round" />
	<path d="M79.4586 77.9203L72.7386 74.0803" stroke="currentColor" stroke-width="0.576" stroke-linecap="round"
		stroke-linejoin="round" />
	<path d="M79.4586 77.9203H60.2586" stroke="currentColor" stroke-width="0.576" stroke-linecap="round"
		stroke-linejoin="round" />
	<path fill-rule="evenodd" clip-rule="evenodd"
		d="M63.103 68.4363V71.6308L63.08 71.9501L63.0142 72.2343L62.9081 72.4891L62.7587 72.7193L62.5717 72.9128L62.343 73.073L62.0879 73.1876L61.7935 73.2594L61.4522 73.2847L61.1033 73.2597L60.807 73.1887L60.5545 73.0764L60.3285 72.9185L60.1441 72.7261L59.9978 72.4959L59.8946 72.2412L59.8307 71.955L59.8085 71.6308V68.4363H60.6078V71.486L60.6343 71.8692L60.7042 72.1516L60.8077 72.3564L60.9189 72.4804L61.0587 72.57L61.2333 72.6267L61.4522 72.6475L61.671 72.6267L61.846 72.57L61.9862 72.4804L62.0981 72.3564L62.2028 72.1512L62.2731 71.8689L62.2999 71.486V68.4363H63.103Z"
		fill="currentColor" />
	<path fill-rule="evenodd" clip-rule="evenodd"
		d="M65.0904 71.1852L65.3009 71.2513L65.482 71.3583L65.6365 71.503L65.7658 71.6852L65.8705 71.9108L65.9404 72.1516L65.9846 72.4279L66.0005 72.7454L65.985 73.0568L65.9404 73.3304L65.8705 73.5712L65.7662 73.7968L65.6365 73.9801L65.482 74.1268L65.3009 74.2356L65.09 74.3029L64.8424 74.3263L64.5945 74.3037L64.384 74.2383L64.2029 74.1324L64.0484 73.9892L63.9191 73.8082L63.8148 73.5837L63.7448 73.3433L63.7003 73.067L63.6848 72.7495H64.2139L64.2343 73.1433L64.2876 73.4298L64.3639 73.6332L64.4856 73.7983L64.6413 73.894L64.8424 73.9272L65.0027 73.9079L65.1327 73.8528L65.2393 73.762L65.3254 73.6305L65.3995 73.4264L65.4513 73.1392L65.471 72.7454L65.4513 72.35L65.3995 72.062L65.3254 71.8579L65.2393 71.726L65.1327 71.6357L65.0027 71.5805L64.8424 71.5612L64.6822 71.5809L64.5525 71.6361L64.446 71.7272L64.3594 71.8602L64.2853 72.0654L64.2336 72.3542L64.2139 72.7495H63.6848L63.7003 72.4385L63.7445 72.1644L63.8148 71.9229L63.9191 71.6962L64.0484 71.5117L64.2029 71.3639L64.3844 71.2536L64.5953 71.1859L64.8424 71.1621L65.0904 71.1852Z"
		fill="currentColor" />
	<path fill-rule="evenodd" clip-rule="evenodd"
		d="M67.355 71.1621L67.6434 71.1901L67.8755 71.2679L68.0716 71.3934L68.2107 71.548L68.2984 71.7309L68.3275 71.9316L68.3074 72.113L68.2497 72.2676L68.1544 72.4014L68.0301 72.5118L67.8875 72.5938L67.7235 72.6482L67.9069 72.6849L68.0728 72.7544L68.2164 72.858L68.3286 72.999L68.3989 73.1713L68.4246 73.3981L68.3899 73.6468L68.2878 73.869L68.1257 74.0557L67.9042 74.2031L67.6423 74.2942L67.3218 74.3263L67.0413 74.2999L66.7764 74.2205L66.5368 74.0878L66.3364 73.9008L66.6384 73.6362L66.7806 73.7696L66.9416 73.8614L67.118 73.9159L67.2998 73.934L67.4828 73.9163L67.6294 73.8664L67.7473 73.7874L67.8381 73.6797L67.8933 73.5466L67.9133 73.3803L67.8921 73.191L67.8362 73.0583L67.75 72.9672L67.5693 72.8807L67.3263 72.8489H67.064L67.1211 72.4853H67.3063L67.5085 72.4551L67.68 72.367L67.767 72.2775L67.8206 72.1595L67.84 72.0042L67.8222 71.8647L67.7719 71.7532L67.6892 71.6637L67.5236 71.5748L67.3153 71.5435L67.1313 71.562L66.9759 71.6141L66.8323 71.6977L66.6849 71.8171L66.4222 71.5367L66.6335 71.37L66.8565 71.2547L67.0965 71.1855L67.355 71.1621Z"
		fill="currentColor" />
	<path d="M112.099 53.9203H104.419V73.1203H112.099V53.9203Z" stroke="currentColor" stroke-width="0.96"
		stroke-linecap="round" stroke-linejoin="round" />
	<path d="M108.259 73.1203V77.9203" stroke="currentColor" stroke-width="0.576" stroke-linecap="round"
		stroke-linejoin="round" />
	<path d="M108.259 53.9203V49.1203" stroke="currentColor" stroke-width="0.576" stroke-linecap="round"
		stroke-linejoin="round" />
	<path fill-rule="evenodd" clip-rule="evenodd"
		d="M117.213 60.782L117.589 60.8523L117.89 60.9596L118.129 61.0991L118.331 61.2881L118.477 61.5167L118.567 61.7938L118.599 62.1309L118.578 62.3913L118.518 62.6162L118.421 62.8116L118.286 62.9824L118.062 63.1763L117.808 63.3286L117.517 63.4405L118.865 65.5121H117.935L116.739 63.5543H116.218V65.5121H115.419V62.9688H116.218H116.808L117.105 62.9443L117.335 62.877L117.512 62.7742L117.645 62.626L117.73 62.4185L117.762 62.1309L117.732 61.8667L117.65 61.6732L117.521 61.533L117.35 61.4374L117.113 61.3731L116.791 61.3489H116.218V62.9688H115.419V60.7563H116.746L117.213 60.782Z"
		fill="currentColor" />
	<path d="M120.355 27.4243L129.379 18.4003" stroke="currentColor" stroke-width="0.576" stroke-linecap="round"
		stroke-linejoin="round" />
	<path d="M115.939 31.8403L117.859 25.1203L122.659 29.9203L115.939 31.8403Z" stroke="currentColor"
		stroke-width="0.576" stroke-linecap="round" stroke-linejoin="round" />
	<path fill-rule="evenodd" clip-rule="evenodd"
		d="M128.754 30.3458V30.9525H125.877V30.3458H127.038V26.9892L125.991 27.6337L125.66 27.0924L127.121 26.1967H127.803V30.3458H128.754Z"
		fill="currentColor" />
	<path fill-rule="evenodd" clip-rule="evenodd"
		d="M137.445 30.9525H136.597L136.266 29.808H134.567L134.236 30.9525H133.423L133.983 29.1912H134.732H136.097L135.418 26.8169L134.732 29.1912H133.983L134.936 26.1967H135.928L137.445 30.9525Z"
		fill="currentColor" />
	<path d="M17.0586 73.1203L20.8986 66.4003" stroke="currentColor" stroke-width="0.576" stroke-linecap="round"
		stroke-linejoin="round" />
	<path d="M17.0586 73.1203L13.2186 66.4003" stroke="currentColor" stroke-width="0.576" stroke-linecap="round"
		stroke-linejoin="round" />
	<path d="M17.0586 73.1203V53.9203" stroke="currentColor" stroke-width="0.576" stroke-linecap="round"
		stroke-linejoin="round" />
	<path fill-rule="evenodd" clip-rule="evenodd"
		d="M9.34306 54.9967V58.1911L9.32002 58.5105L9.25425 58.7947L9.14805 59.0495L8.99877 59.2796L8.81168 59.4731L8.58302 59.6334L8.32791 59.7479L8.03347 59.8197L7.69217 59.845L7.34332 59.8201L7.04701 59.7491L6.79455 59.6368L6.56854 59.4788L6.38408 59.2864L6.23782 59.0563L6.13462 58.8015L6.07075 58.5154L6.04846 58.1911V54.9967H6.84784V58.0464L6.87428 58.4296L6.94421 58.712L7.04776 58.9168L7.15889 59.0408L7.29874 59.1303L7.47334 59.187L7.69217 59.2078L7.91101 59.187L8.08601 59.1303L8.22623 59.0408L8.33809 58.9168L8.44279 58.7116L8.51309 58.4292L8.53994 58.0464V54.9967H9.34306Z"
		fill="currentColor" />
	<path fill-rule="evenodd" clip-rule="evenodd"
		d="M11.3304 57.7455L11.5409 57.8116L11.7219 57.9186L11.8765 58.0634L12.0057 58.2455L12.1105 58.4712L12.1804 58.7119L12.2246 58.9882L12.2405 59.3057L12.225 59.6171L12.1804 59.8908L12.1105 60.1315L12.0061 60.3572L11.8765 60.5405L11.7219 60.6871L11.5409 60.796L11.33 60.8632L11.0824 60.8867L10.8345 60.864L10.624 60.7986L10.4429 60.6928L10.2884 60.5495L10.1591 60.3685L10.0548 60.144L9.98487 59.9036L9.94026 59.6273L9.92474 59.3099H10.4539L10.4743 59.7037L10.5276 59.9902L10.6039 60.1935L10.7256 60.3587L10.8814 60.4543L11.0824 60.4876L11.2427 60.4683L11.3727 60.4131L11.4793 60.3224L11.5654 60.1909L11.6395 59.9868L11.6913 59.6995L11.711 59.3057L11.6913 58.9104L11.6395 58.6224L11.5654 58.4183L11.4793 58.2863L11.3727 58.196L11.2427 58.1408L11.0824 58.1216L10.9222 58.1412L10.7925 58.1964L10.6859 58.2875L10.5994 58.4205L10.5253 58.6258L10.4735 58.9145L10.4539 59.3099H9.92474L9.94026 58.9988L9.98446 58.7248L10.0548 58.4833L10.1591 58.2565L10.2884 58.0721L10.4429 57.9243L10.6244 57.8139L10.8353 57.7463L11.0824 57.7224L11.3304 57.7455Z"
		fill="currentColor" />
	<path fill-rule="evenodd" clip-rule="evenodd"
		d="M13.6038 57.7224L13.8971 57.7531L14.1284 57.8381L14.3208 57.9753L14.4584 58.1492L14.5434 58.3536L14.5721 58.5823L14.5547 58.7803L14.5025 58.9738L14.4156 59.1632L14.2799 59.3752L14.1103 59.5876L13.8751 59.8428L13.2598 60.4305H14.6428L14.5854 60.8273H12.6933V60.4524L13.3687 59.7823L13.617 59.5124L13.7856 59.3057L13.9198 59.1058L13.9987 58.9429L14.0453 58.7788L14.0607 58.6133L14.0449 58.4655L14.001 58.3472L13.9303 58.2516L13.8359 58.1798L13.7176 58.1352L13.5686 58.1193L13.3744 58.1393L13.2255 58.1941L13.0943 58.2875L12.9537 58.4368L12.6313 58.1922L12.8256 57.9893L13.0414 57.8438L13.2893 57.7546L13.6038 57.7224Z"
		fill="currentColor" />
	<path
		d="M36.2586 73.1203C41.5605 73.1203 45.8586 68.8222 45.8586 63.5203C45.8586 58.2183 41.5605 53.9203 36.2586 53.9203C30.9567 53.9203 26.6586 58.2183 26.6586 63.5203C26.6586 68.8222 30.9567 73.1203 36.2586 73.1203Z"
		stroke="currentColor" stroke-width="0.96" stroke-linecap="round" stroke-linejoin="round" />
	<path d="M36.2586 73.1203V82.7203" stroke="currentColor" stroke-width="0.576" stroke-linecap="round"
		stroke-linejoin="round" />
	<path d="M36.2586 53.9203V44.3203" stroke="currentColor" stroke-width="0.576" stroke-linecap="round"
		stroke-linejoin="round" />
	<path d="M24.1626 27.4243L15.1386 18.4003" stroke="currentColor" stroke-width="0.576" stroke-linecap="round"
		stroke-linejoin="round" />
	<path d="M28.5786 31.8403L26.6587 25.1203L21.8586 29.9203L28.5786 31.8403Z" stroke="currentColor"
		stroke-width="0.576" stroke-linecap="round" stroke-linejoin="round" />
	<path fill-rule="evenodd" clip-rule="evenodd"
		d="M10.6739 30.3458V30.9525H7.79655V30.3458H8.95798V26.9892L7.9103 27.6337L7.57959 27.0924L9.0404 26.1967H9.72296V30.3458H10.6739Z"
		fill="currentColor" />
	<path fill-rule="evenodd" clip-rule="evenodd"
		d="M19.3642 30.9525H18.5165L18.1857 29.808H16.4869L16.1561 30.9525H15.3428L15.9029 29.1912H16.652H18.0168L17.338 26.8169L16.652 29.1912H15.9029L16.8557 26.1967H17.8478L19.3642 30.9525Z"
		fill="currentColor" />
	<path
		d="M69.8586 39.5203C75.1605 39.5203 79.4586 35.2222 79.4586 29.9203C79.4586 24.6184 75.1605 20.3203 69.8586 20.3203C64.5566 20.3203 60.2586 24.6184 60.2586 29.9203C60.2586 35.2222 64.5566 39.5203 69.8586 39.5203Z"
		stroke="currentColor" stroke-width="0.96" stroke-linecap="round" stroke-linejoin="round" />
	<path d="M79.4586 29.9203H89.0586" stroke="currentColor" stroke-width="0.576" stroke-linecap="round"
		stroke-linejoin="round" />
	<path d="M60.2586 29.9203H50.6586" stroke="currentColor" stroke-width="0.576" stroke-linecap="round"
		stroke-linejoin="round" />
	<path d="M79.4586 10.7203L72.7386 14.5603" stroke="currentColor" stroke-width="0.576" stroke-linecap="round"
		stroke-linejoin="round" />
	<path d="M79.4586 10.7203L72.7386 6.88028" stroke="currentColor" stroke-width="0.576" stroke-linecap="round"
		stroke-linejoin="round" />
	<path d="M79.4586 10.7203H60.2586" stroke="currentColor" stroke-width="0.576" stroke-linecap="round"
		stroke-linejoin="round" />
	<path fill-rule="evenodd" clip-rule="evenodd"
		d="M63.103 1.2363V4.43075L63.08 4.75012L63.0142 5.03434L62.9081 5.28908L62.7587 5.51925L62.5717 5.71277L62.343 5.87302L62.0879 5.98754L61.7935 6.05935L61.4522 6.08467L61.1033 6.05973L60.807 5.98866L60.5545 5.87642L60.3285 5.71843L60.1441 5.52606L59.9978 5.29588L59.8946 5.04114L59.8307 4.75504L59.8085 4.43075V1.2363H60.6078V4.286L60.6343 4.66924L60.7042 4.95157L60.8077 5.15641L60.9189 5.28039L61.0587 5.36997L61.2333 5.42666L61.4522 5.44744L61.671 5.42666L61.846 5.36997L61.9862 5.28039L62.0981 5.15641L62.2028 4.95119L62.2731 4.66886L62.2999 4.286V1.2363H63.103Z"
		fill="currentColor" />
	<path fill-rule="evenodd" clip-rule="evenodd"
		d="M65.0904 3.98515L65.3009 4.05129L65.482 4.15825L65.6365 4.303L65.7658 4.48519L65.8705 4.71083L65.9404 4.95157L65.9846 5.22786L66.0005 5.54534L65.985 5.85678L65.9404 6.13041L65.8705 6.37116L65.7662 6.5968L65.6365 6.78011L65.482 6.92676L65.3009 7.0356L65.09 7.10289L64.8424 7.12632L64.5945 7.10364L64.384 7.03825L64.2029 6.93243L64.0484 6.78919L63.9191 6.60814L63.8148 6.38365L63.7448 6.14326L63.7003 5.86697L63.6848 5.54949H64.2139L64.2343 5.94333L64.2876 6.22981L64.3639 6.43316L64.4856 6.59831L64.6413 6.69394L64.8424 6.72719L65.0027 6.70792L65.1327 6.65274L65.2393 6.56204L65.3254 6.4305L65.3995 6.22641L65.4513 5.93916L65.471 5.54534L65.4513 5.15L65.3995 4.862L65.3254 4.65791L65.2393 4.526L65.1327 4.43568L65.0027 4.38049L64.8424 4.36121L64.6822 4.38086L64.5525 4.43605L64.446 4.52713L64.3594 4.66018L64.2853 4.8654L64.2336 5.15416L64.2139 5.54949H63.6848L63.7003 5.23844L63.7445 4.96442L63.8148 4.72291L63.9191 4.49615L64.0484 4.3117L64.2029 4.16392L64.3844 4.05356L64.5953 3.9859L64.8424 3.9621L65.0904 3.98515Z"
		fill="currentColor" />
	<path fill-rule="evenodd" clip-rule="evenodd"
		d="M68.5021 6.67883V7.06698H66.6604V6.67883H67.4038V4.53093L66.7333 4.94326L66.5217 4.59706L67.4563 4.02371H67.8933V6.67883H68.5021Z"
		fill="currentColor" />
	<path d="M108.259 77.9203V97.1203" stroke="currentColor" stroke-width="0.576" stroke-linecap="round"
		stroke-linejoin="round" />
	<path d="M108.259 97.1203L122.659 111.52" stroke="currentColor" stroke-width="0.576" stroke-linecap="round"
		stroke-linejoin="round" />
	<path d="M89.0586 29.9203H108.259" stroke="currentColor" stroke-width="0.576" stroke-linecap="round"
		stroke-linejoin="round" />
	<path d="M108.259 29.9203V49.1203" stroke="currentColor" stroke-width="0.576" stroke-linecap="round"
		stroke-linejoin="round" />
	<path d="M108.259 97.1203H89.0586" stroke="currentColor" stroke-width="0.576" stroke-linecap="round"
		stroke-linejoin="round" />
	<path d="M21.8586 111.52L36.2586 97.1203" stroke="currentColor" stroke-width="0.576" stroke-linecap="round"
		stroke-linejoin="round" />
	<path d="M36.2587 97.1203V82.7203" stroke="currentColor" stroke-width="0.576" stroke-linecap="round"
		stroke-linejoin="round" />
	<path d="M50.6587 97.1203H36.2587" stroke="currentColor" stroke-width="0.576" stroke-linecap="round"
		stroke-linejoin="round" />
	<path d="M108.259 29.9203L122.659 15.5203" stroke="currentColor" stroke-width="0.576" stroke-linecap="round"
		stroke-linejoin="round" />
	<path d="M21.8586 15.5203L36.2586 29.9203" stroke="currentColor" stroke-width="0.576" stroke-linecap="round"
		stroke-linejoin="round" />
	<path d="M36.2587 29.9203H50.6587" stroke="currentColor" stroke-width="0.576" stroke-linecap="round"
		stroke-linejoin="round" />
	<path d="M36.2587 44.3203V29.9203" stroke="currentColor" stroke-width="0.576" stroke-linecap="round"
		stroke-linejoin="round" />
	<path
		d="M108.259 98.8483C109.213 98.8483 109.987 98.0746 109.987 97.1203C109.987 96.1659 109.213 95.3923 108.259 95.3923C107.304 95.3923 106.531 96.1659 106.531 97.1203C106.531 98.0746 107.304 98.8483 108.259 98.8483Z"
		fill="currentColor" />
	<path
		d="M108.259 31.6483C109.213 31.6483 109.987 30.8746 109.987 29.9203C109.987 28.9659 109.213 28.1923 108.259 28.1923C107.304 28.1923 106.531 28.9659 106.531 29.9203C106.531 30.8746 107.304 31.6483 108.259 31.6483Z"
		fill="currentColor" />
	<path
		d="M36.2586 98.8483C37.213 98.8483 37.9866 98.0746 37.9866 97.1203C37.9866 96.1659 37.213 95.3923 36.2586 95.3923C35.3043 95.3923 34.5306 96.1659 34.5306 97.1203C34.5306 98.0746 35.3043 98.8483 36.2586 98.8483Z"
		fill="currentColor" />
	<path
		d="M36.2586 31.6483C37.213 31.6483 37.9866 30.8746 37.9866 29.9203C37.9866 28.9659 37.213 28.1923 36.2586 28.1923C35.3043 28.1923 34.5306 28.9659 34.5306 29.9203C34.5306 30.8746 35.3043 31.6483 36.2586 31.6483Z"
		fill="currentColor" />
</svg>