<svg width="157" height="80" viewBox="0 0 157 80" fill="none" xmlns="http://www.w3.org/2000/svg">
	<path d="M142.919 28.4209H135.239V47.6209H142.919V28.4209Z" stroke="currentColor" stroke-width="0.96"
		stroke-linecap="round" stroke-linejoin="round" />
	<path d="M139.079 47.6209V52.4209" stroke="currentColor" stroke-width="0.576" stroke-linecap="round"
		stroke-linejoin="round" />
	<path d="M139.079 28.4209V23.6209" stroke="currentColor" stroke-width="0.576" stroke-linecap="round"
		stroke-linejoin="round" />
	<path fill-rule="evenodd" clip-rule="evenodd"
		d="M147.671 35.2826L148.047 35.3529L148.348 35.4603L148.587 35.5997L148.789 35.7887L148.935 36.0174L149.025 36.2944L149.057 36.6316L149.036 36.892L148.976 37.1169L148.879 37.3123L148.744 37.4831L148.52 37.677L148.266 37.8293L147.975 37.9412L149.323 40.0127H148.393L147.197 38.0549H146.676V40.0127H145.877V37.4695H146.676H147.266L147.563 37.4449L147.793 37.3776L147.97 37.2748L148.103 37.1267L148.188 36.9192L148.22 36.6316L148.19 36.3674L148.108 36.1739L147.979 36.0336L147.808 35.938L147.571 35.8738L147.249 35.8496H146.676V37.4695H145.877V35.257H147.204L147.671 35.2826Z"
		fill="currentColor" />
	<path fill-rule="evenodd" clip-rule="evenodd"
		d="M150.613 37.9827L150.901 38.0107L151.134 38.0886L151.33 38.214L151.469 38.3686L151.556 38.5516L151.586 38.7523L151.566 38.9337L151.508 39.0882L151.412 39.222L151.288 39.3324L151.146 39.4144L150.982 39.4688L151.165 39.5055L151.331 39.575L151.474 39.6786L151.587 39.8196L151.657 39.9919L151.683 40.2187L151.648 40.4674L151.546 40.6896L151.384 40.8763L151.162 41.0237L150.9 41.1148L150.58 41.147L150.299 41.1205L150.034 41.0411L149.795 40.9085L149.594 40.7214L149.897 40.4568L150.039 40.5902L150.2 40.6821L150.376 40.7365L150.558 40.7546L150.741 40.7369L150.887 40.687L151.006 40.608L151.096 40.5003L151.152 40.3672L151.171 40.2009L151.15 40.0116L151.094 39.8789L151.008 39.7878L150.827 39.7013L150.584 39.6695H150.322L150.379 39.306H150.565L150.767 39.2757L150.938 39.1877L151.025 39.0981L151.079 38.9802L151.098 38.8248L151.08 38.6854L151.03 38.5738L150.947 38.4843L150.782 38.3955L150.574 38.3641L150.389 38.3826L150.234 38.4348L150.09 38.5183L149.943 38.6377L149.68 38.3573L149.892 38.1906L150.115 38.0753L150.355 38.0062L150.613 37.9827Z"
		fill="currentColor" />
	<path d="M104.519 28.4209H96.8391V47.6209H104.519V28.4209Z" stroke="currentColor" stroke-width="0.96"
		stroke-linecap="round" stroke-linejoin="round" />
	<path d="M100.679 47.6209V52.4209" stroke="currentColor" stroke-width="0.576" stroke-linecap="round"
		stroke-linejoin="round" />
	<path d="M100.679 28.4209V23.6209" stroke="currentColor" stroke-width="0.576" stroke-linecap="round"
		stroke-linejoin="round" />
	<path fill-rule="evenodd" clip-rule="evenodd"
		d="M109.271 35.2826L109.647 35.3529L109.948 35.4603L110.187 35.5997L110.389 35.7887L110.535 36.0174L110.625 36.2944L110.657 36.6316L110.636 36.892L110.576 37.1169L110.479 37.3123L110.344 37.4831L110.12 37.677L109.866 37.8293L109.575 37.9412L110.923 40.0127H109.993L108.797 38.0549H108.276V40.0127H107.477V37.4695H108.276H108.866L109.163 37.4449L109.393 37.3776L109.57 37.2748L109.703 37.1267L109.788 36.9192L109.82 36.6316L109.79 36.3674L109.708 36.1739L109.579 36.0336L109.408 35.938L109.171 35.8738L108.849 35.8496H108.276V37.4695H107.477V35.257H108.804L109.271 35.2826Z"
		fill="currentColor" />
	<path fill-rule="evenodd" clip-rule="evenodd"
		d="M112.222 37.9827L112.515 38.0133L112.747 38.0984L112.939 38.2356L113.076 38.4094L113.161 38.6139L113.19 38.8426L113.173 39.0406L113.121 39.2341L113.034 39.4235L112.898 39.6355L112.729 39.8479L112.493 40.1031L111.878 40.6908H113.261L113.203 41.0876H111.311V40.7127L111.987 40.0426L112.235 39.7727L112.404 39.566L112.538 39.366L112.617 39.2031L112.663 39.0391L112.679 38.8736L112.663 38.7258L112.619 38.6075L112.548 38.5119L112.454 38.4401L112.336 38.3955L112.187 38.3796L111.993 38.3996L111.843 38.4544L111.712 38.5478L111.572 38.6971L111.249 38.4525L111.444 38.2496L111.659 38.1041L111.907 38.0149L112.222 37.9827Z"
		fill="currentColor" />
	<path d="M76.6791 5.38091H57.4791V13.0609H76.6791V5.38091Z" stroke="currentColor" stroke-width="0.96"
		stroke-linecap="round" stroke-linejoin="round" />
	<path d="M57.4791 9.22092H52.6791" stroke="currentColor" stroke-width="0.576" stroke-linecap="round"
		stroke-linejoin="round" />
	<path d="M76.6791 9.22092H81.479" stroke="currentColor" stroke-width="0.576" stroke-linecap="round"
		stroke-linejoin="round" />
	<path fill-rule="evenodd" clip-rule="evenodd"
		d="M66.0707 15.123L66.4472 15.1933L66.748 15.3007L66.9869 15.4401L67.1895 15.6291L67.3346 15.8578L67.4253 16.1348L67.4574 16.4719L67.4363 16.7323L67.3758 16.9572L67.2787 17.1526L67.1437 17.3235L66.9204 17.5174L66.666 17.6697L66.3753 17.7815L67.7232 19.8531H66.7926L65.5968 17.8953H65.0764V19.8531H64.277V17.3099H65.0764H65.6656L65.9634 17.2853L66.1932 17.218L66.3701 17.1152L66.5027 16.9671L66.5881 16.7596L66.6203 16.4719L66.5896 16.2077L66.5076 16.0142L66.3787 15.874L66.2076 15.7784L65.9709 15.7141L65.6486 15.6899H65.0764V17.3099H64.277V15.0973H65.6036L66.0707 15.123Z"
		fill="currentColor" />
	<path fill-rule="evenodd" clip-rule="evenodd"
		d="M69.1435 17.4592L69.2773 17.4822L69.3782 17.5476L69.4447 17.6459L69.4674 17.7679L69.4451 17.89L69.3782 17.9905L69.2769 18.0574L69.1435 18.0809L69.0131 18.0578L68.9114 17.9905L68.8442 17.89L68.8211 17.7679L68.8442 17.6459L68.9114 17.5476L69.0131 17.4818L69.1435 17.4592Z"
		fill="currentColor" />
	<path fill-rule="evenodd" clip-rule="evenodd"
		d="M69.4874 18.5994V20.5663H70.1201V20.928H68.2964V20.5663H68.9934V18.9608H68.3184V18.5994H69.4874Z"
		fill="currentColor" />
	<path d="M76.6791 62.9809H57.4791V70.6609H76.6791V62.9809Z" stroke="currentColor" stroke-width="0.96"
		stroke-linecap="round" stroke-linejoin="round" />
	<path d="M57.4791 66.8209H52.6791" stroke="currentColor" stroke-width="0.576" stroke-linecap="round"
		stroke-linejoin="round" />
	<path d="M76.6791 66.8209H81.479" stroke="currentColor" stroke-width="0.576" stroke-linecap="round"
		stroke-linejoin="round" />
	<path fill-rule="evenodd" clip-rule="evenodd"
		d="M66.0707 72.723L66.4472 72.7933L66.748 72.9007L66.9869 73.0401L67.1895 73.2291L67.3346 73.4578L67.4253 73.7348L67.4574 74.0719L67.4363 74.3324L67.3758 74.5572L67.2787 74.7526L67.1437 74.9235L66.9204 75.1174L66.666 75.2697L66.3753 75.3815L67.7232 77.4531H66.7926L65.5968 75.4953H65.0764V77.4531H64.277V74.9099H65.0764H65.6656L65.9634 74.8853L66.1932 74.818L66.3701 74.7152L66.5027 74.5671L66.5881 74.3596L66.6203 74.0719L66.5896 73.8077L66.5076 73.6142L66.3787 73.474L66.2076 73.3784L65.9709 73.3141L65.6486 73.29H65.0764V74.9099H64.277V72.6973H65.6036L66.0707 72.723Z"
		fill="currentColor" />
	<path fill-rule="evenodd" clip-rule="evenodd"
		d="M70.1602 78.1398V78.528H68.3184V78.1398H69.0618V75.9919L68.3913 76.4043L68.1797 76.0581L69.1148 75.4847H69.5513V78.1398H70.1602Z"
		fill="currentColor" />
	<path d="M14.2791 47.6209L18.1191 40.9009" stroke="currentColor" stroke-width="0.576" stroke-linecap="round"
		stroke-linejoin="round" />
	<path d="M14.2791 47.6209L10.4391 40.9009" stroke="currentColor" stroke-width="0.576" stroke-linecap="round"
		stroke-linejoin="round" />
	<path d="M14.2791 47.6209V28.4209" stroke="currentColor" stroke-width="0.576" stroke-linecap="round"
		stroke-linejoin="round" />
	<path fill-rule="evenodd" clip-rule="evenodd"
		d="M7.886 29.4973V32.6918L7.86293 33.0112L7.79719 33.2954L7.69101 33.5501L7.5417 33.7803L7.35462 33.9738L7.12595 34.1341L6.87082 34.2486L6.57641 34.3204L6.23511 34.3457L5.88626 34.3208L5.58994 34.2497L5.33746 34.1375L5.11145 33.9795L4.92701 33.7871L4.78076 33.5569L4.67759 33.3022L4.61369 33.0161L4.59137 32.6918V29.4973H5.39075V32.547L5.41722 32.9303L5.48717 33.2126L5.59069 33.4174L5.70183 33.5414L5.84168 33.631L6.01631 33.6877L6.23511 33.7085L6.45397 33.6877L6.62894 33.631L6.76914 33.5414L6.88102 33.4174L6.98575 33.2122L7.05606 32.9299L7.08287 32.547V29.4973H7.886Z"
		fill="currentColor" />
	<path fill-rule="evenodd" clip-rule="evenodd"
		d="M9.62347 31.8591L9.75726 31.8822L9.85819 31.9476L9.92468 32.0459L9.94741 32.1679L9.92509 32.29L9.85819 32.3906L9.75692 32.4575L9.62347 32.4809L9.49307 32.4578L9.3914 32.3906L9.32415 32.29L9.30109 32.1679L9.32415 32.0459L9.3914 31.9476L9.49307 31.8818L9.62347 31.8591Z"
		fill="currentColor" />
	<path fill-rule="evenodd" clip-rule="evenodd"
		d="M9.96739 32.9994V34.9663H10.6001V35.328H8.77643V34.9663H9.47338V33.3608H8.7984V32.9994H9.96739Z"
		fill="currentColor" />
	<path
		d="M33.4791 47.6209C38.781 47.6209 43.0791 43.3229 43.0791 38.0209C43.0791 32.719 38.781 28.4209 33.4791 28.4209C28.1771 28.4209 23.8791 32.719 23.8791 38.0209C23.8791 43.3229 28.1771 47.6209 33.4791 47.6209Z"
		stroke="currentColor" stroke-width="0.96" stroke-linecap="round" stroke-linejoin="round" />
	<path d="M33.4791 47.6209V57.2209" stroke="currentColor" stroke-width="0.576" stroke-linecap="round"
		stroke-linejoin="round" />
	<path d="M33.4791 28.4209V18.8209" stroke="currentColor" stroke-width="0.576" stroke-linecap="round"
		stroke-linejoin="round" />
	<path d="M139.079 52.4209V66.8209" stroke="currentColor" stroke-width="0.576" stroke-linecap="round"
		stroke-linejoin="round" />
	<path d="M100.679 66.8209H139.079" stroke="currentColor" stroke-width="0.576" stroke-linecap="round"
		stroke-linejoin="round" />
	<path d="M100.679 52.4209V66.8209" stroke="currentColor" stroke-width="0.576" stroke-linecap="round"
		stroke-linejoin="round" />
	<path d="M81.4791 66.8209H100.679" stroke="currentColor" stroke-width="0.576" stroke-linecap="round"
		stroke-linejoin="round" />
	<path d="M100.679 9.22092H139.079" stroke="currentColor" stroke-width="0.576" stroke-linecap="round"
		stroke-linejoin="round" />
	<path d="M139.079 23.6209V9.22092" stroke="currentColor" stroke-width="0.576" stroke-linecap="round"
		stroke-linejoin="round" />
	<path d="M81.4791 9.22092H100.679" stroke="currentColor" stroke-width="0.576" stroke-linecap="round"
		stroke-linejoin="round" />
	<path d="M100.679 9.22092V23.6209" stroke="currentColor" stroke-width="0.576" stroke-linecap="round"
		stroke-linejoin="round" />
	<path d="M52.6791 66.8209H33.4791" stroke="currentColor" stroke-width="0.576" stroke-linecap="round"
		stroke-linejoin="round" />
	<path d="M33.4791 66.8209V57.2209" stroke="currentColor" stroke-width="0.576" stroke-linecap="round"
		stroke-linejoin="round" />
	<path d="M33.4791 9.22092H52.6791" stroke="currentColor" stroke-width="0.576" stroke-linecap="round"
		stroke-linejoin="round" />
	<path d="M33.4791 18.8209V9.22092" stroke="currentColor" stroke-width="0.576" stroke-linecap="round"
		stroke-linejoin="round" />
	<path fill-rule="evenodd" clip-rule="evenodd"
		d="M146.854 5.99206H146.006L145.675 4.84762H143.976L143.646 5.99206H142.832L143.392 4.23081H144.141H145.506L144.827 1.85651L144.141 4.23081H143.392L144.345 1.23628H145.337L146.854 5.99206Z"
		fill="currentColor" />
	<path fill-rule="evenodd" clip-rule="evenodd"
		d="M144.961 58.851L145.275 58.8949L145.573 58.9742L145.832 59.0895L146.053 59.2505L146.223 59.4584L146.301 59.6194L146.351 59.8106L146.368 60.0389L146.335 60.3228L146.244 60.5492L146.1 60.7393L145.918 60.8886L145.709 60.9993L145.489 61.0726L145.744 61.1358L145.997 61.2367L146.225 61.3837L146.411 61.5916L146.498 61.7567L146.554 61.9627L146.575 62.2201L146.556 62.4809L146.503 62.699L146.419 62.8819L146.304 63.0471L146.164 63.1873L145.999 63.3041L145.721 63.4367L145.404 63.5267L145.071 63.5754L144.724 63.5921H143.332V62.9719H144.131H144.776L145.001 62.9575L145.225 62.9148L145.43 62.8309L145.594 62.6959L145.672 62.5792L145.722 62.4234L145.74 62.2171L145.725 62.0084L145.682 61.8471L145.617 61.7227L145.471 61.5719L145.282 61.4744L145.064 61.4222L144.81 61.4037H144.131V62.9719H143.332V60.8107H144.131H144.751L145.013 60.7892L145.209 60.7314L145.354 60.6437L145.462 60.5178L145.532 60.3436L145.558 60.1043L145.53 59.8768L145.454 59.7109L145.334 59.5911L145.177 59.5094L144.971 59.4558L144.703 59.4357H144.131V60.8107H143.332V58.8363H144.631L144.961 58.851Z"
		fill="currentColor" />
	<path
		d="M139.079 69.2209C140.405 69.2209 141.479 68.1464 141.479 66.8209C141.479 65.4954 140.405 64.4209 139.079 64.4209C137.754 64.4209 136.679 65.4954 136.679 66.8209C136.679 68.1464 137.754 69.2209 139.079 69.2209Z"
		stroke="currentColor" stroke-width="0.576" stroke-linecap="round" stroke-linejoin="round" />
	<path
		d="M139.079 11.6209C140.405 11.6209 141.479 10.5464 141.479 9.22092C141.479 7.89543 140.405 6.82092 139.079 6.82092C137.754 6.82092 136.679 7.89543 136.679 9.22092C136.679 10.5464 137.754 11.6209 139.079 11.6209Z"
		stroke="currentColor" stroke-width="0.576" stroke-linecap="round" stroke-linejoin="round" />
	<path
		d="M100.679 68.5489C101.633 68.5489 102.407 67.7753 102.407 66.8209C102.407 65.8666 101.633 65.0929 100.679 65.0929C99.7247 65.0929 98.951 65.8666 98.951 66.8209C98.951 67.7753 99.7247 68.5489 100.679 68.5489Z"
		fill="currentColor" />
	<path
		d="M100.679 10.9489C101.633 10.9489 102.407 10.1753 102.407 9.22092C102.407 8.26657 101.633 7.49291 100.679 7.49291C99.7247 7.49291 98.951 8.26657 98.951 9.22092C98.951 10.1753 99.7247 10.9489 100.679 10.9489Z"
		fill="currentColor" />
</svg>