<svg width="168" height="64" viewBox="0 0 168 64" fill="none" xmlns="http://www.w3.org/2000/svg">
	<path d="M155.299 23.52H147.619V42.72H155.299V23.52Z" stroke="currentColor" stroke-width="0.96"
		stroke-linecap="round" stroke-linejoin="round" />
	<path d="M151.459 42.72V47.52" stroke="currentColor" stroke-width="0.576" stroke-linecap="round"
		stroke-linejoin="round" />
	<path d="M151.459 23.52V18.72" stroke="currentColor" stroke-width="0.576" stroke-linecap="round"
		stroke-linejoin="round" />
	<path fill-rule="evenodd" clip-rule="evenodd"
		d="M159.09 30.3818L159.467 30.4521L159.767 30.5594L160.006 30.6989L160.209 30.8878L160.354 31.1165L160.445 31.3935L160.477 31.7307L160.456 31.9911L160.395 32.216L160.298 32.4114L160.163 32.5822L159.94 32.7761L159.685 32.9284L159.395 33.0403L160.743 35.1118H159.812L158.616 33.154H158.096V35.1118H157.296V32.5686H158.096H158.685L158.983 32.544L159.213 32.4767L159.39 32.3739L159.522 32.2258L159.608 32.0183L159.64 31.7307L159.609 31.4665L159.527 31.273L159.398 31.1327L159.227 31.0371L158.99 30.9729L158.668 30.9487H158.096V32.5686H157.296V30.356H158.623L159.09 30.3818Z"
		fill="currentColor" />
	<path fill-rule="evenodd" clip-rule="evenodd"
		d="M162.853 34.2879V35.1016H163.215V35.4852H162.853V36.1867H162.379L162.377 35.4852H161.113V35.1417L161.989 33.0818L162.406 33.247L161.629 35.1016H162.379L162.438 34.2879H162.853Z"
		fill="currentColor" />
	<path
		d="M36.2585 42.72C41.5604 42.72 45.8585 38.4219 45.8585 33.12C45.8585 27.8181 41.5604 23.52 36.2585 23.52C30.9565 23.52 26.6585 27.8181 26.6585 33.12C26.6585 38.4219 30.9565 42.72 36.2585 42.72Z"
		stroke="currentColor" stroke-width="0.96" stroke-linecap="round" stroke-linejoin="round" />
	<path d="M36.2585 42.72V52.32" stroke="currentColor" stroke-width="0.576" stroke-linecap="round"
		stroke-linejoin="round" />
	<path d="M36.2585 23.52V13.92" stroke="currentColor" stroke-width="0.576" stroke-linecap="round"
		stroke-linejoin="round" />
	<path d="M17.0585 42.72L20.8985 36" stroke="currentColor" stroke-width="0.576" stroke-linecap="round"
		stroke-linejoin="round" />
	<path d="M17.0585 42.72L13.2185 36" stroke="currentColor" stroke-width="0.576" stroke-linecap="round"
		stroke-linejoin="round" />
	<path d="M17.0585 42.72V23.52" stroke="currentColor" stroke-width="0.576" stroke-linecap="round"
		stroke-linejoin="round" />
	<path fill-rule="evenodd" clip-rule="evenodd"
		d="M9.34297 24.5964V27.7909L9.31996 28.1103L9.25416 28.3945L9.14799 28.6492L8.99868 28.8794L8.81159 29.0729L8.58293 29.2332L8.32779 29.3477L8.03338 29.4195L7.69208 29.4448L7.34323 29.4199L7.04692 29.3488L6.79443 29.2366L6.56842 29.0786L6.38399 28.8862L6.23773 28.656L6.13456 28.4013L6.07066 28.1152L6.0484 27.7909V24.5964H6.84778V27.6461L6.87419 28.0294L6.94415 28.3117L7.04767 28.5166L7.1588 28.6405L7.29865 28.7301L7.47328 28.7868L7.69208 28.8076L7.91094 28.7868L8.08592 28.7301L8.22617 28.6405L8.338 28.5166L8.44273 28.3113L8.51303 28.029L8.53985 27.6461V24.5964H9.34297Z"
		fill="currentColor" />
	<path fill-rule="evenodd" clip-rule="evenodd"
		d="M11.3303 27.3453L11.5409 27.4114L11.7219 27.5184L11.8764 27.6632L12.0057 27.8453L12.1104 28.071L12.1803 28.3117L12.2245 28.588L12.2404 28.9055L12.2249 29.2169L12.1803 29.4906L12.1104 29.7313L12.0061 29.957L11.8764 30.1403L11.7219 30.2869L11.5409 30.3958L11.33 30.463L11.0824 30.4865L10.8344 30.4638L10.6239 30.3984L10.4429 30.2926L10.2883 30.1493L10.1591 29.9683L10.0547 29.7438L9.98478 29.5034L9.9402 29.2271L9.92468 28.9096H10.4538L10.4742 29.3035L10.5275 29.59L10.6039 29.7933L10.7256 29.9585L10.8813 30.0541L11.0824 30.0873L11.2426 30.0681L11.3726 30.0129L11.4792 29.9222L11.5654 29.7907L11.6395 29.5866L11.6913 29.2993L11.7109 28.9055L11.6913 28.5101L11.6395 28.2221L11.5654 28.0181L11.4792 27.8861L11.3726 27.7958L11.2426 27.7406L11.0824 27.7214L10.9221 27.741L10.7925 27.7962L10.6859 27.8873L10.5994 28.0203L10.5253 28.2256L10.4735 28.5143L10.4538 28.9096H9.92468L9.9402 28.5986L9.98443 28.3246L10.0547 28.0831L10.1591 27.8563L10.2883 27.6719L10.4429 27.5241L10.6243 27.4137L10.8352 27.3461L11.0824 27.3222L11.3303 27.3453Z"
		fill="currentColor" />
	<path fill-rule="evenodd" clip-rule="evenodd"
		d="M14.7421 30.039V30.4271H12.9003V30.039H13.6437V27.8911L12.9732 28.3034L12.7616 27.9572L13.6963 27.3839H14.1332V30.039H14.7421Z"
		fill="currentColor" />
	<path d="M74.6585 0.480011H55.4585V8.16H74.6585V0.480011Z" stroke="currentColor" stroke-width="0.96"
		stroke-linecap="round" stroke-linejoin="round" />
	<path d="M55.4585 4.32001H50.6586" stroke="currentColor" stroke-width="0.576" stroke-linecap="round"
		stroke-linejoin="round" />
	<path d="M74.6585 4.32001H79.4585" stroke="currentColor" stroke-width="0.576" stroke-linecap="round"
		stroke-linejoin="round" />
	<path fill-rule="evenodd" clip-rule="evenodd"
		d="M64.0501 10.2221L64.4266 10.2924L64.7274 10.3997L64.9663 10.5392L65.1688 10.7282L65.314 10.9568L65.4047 11.2339L65.4368 11.571L65.4157 11.8314L65.3552 12.0563L65.2581 12.2517L65.1231 12.4225L64.8998 12.6164L64.6454 12.7688L64.3548 12.8806L65.7025 14.9522H64.772L63.5762 12.9944H63.0557V14.9522H62.2563V12.4089H63.0557H63.645L63.9428 12.3844L64.1726 12.3171L64.3495 12.2143L64.4822 12.0661L64.5676 11.8586L64.5997 11.571L64.5691 11.3068L64.4871 11.1133L64.3582 10.9731L64.1869 10.8775L63.9504 10.8132L63.6279 10.789H63.0557V12.4089H62.2563V10.1964H63.583L64.0501 10.2221Z"
		fill="currentColor" />
	<path fill-rule="evenodd" clip-rule="evenodd"
		d="M68.1396 15.6389V16.0271H66.2978V15.6389H67.0413V13.491L66.3708 13.9034L66.1591 13.5572L67.0941 12.9838H67.5307V15.6389H68.1396Z"
		fill="currentColor" />
	<path d="M97.6985 23.52H90.0186V42.72H97.6985V23.52Z" stroke="currentColor" stroke-width="0.96"
		stroke-linecap="round" stroke-linejoin="round" />
	<path d="M93.8585 42.72V47.52" stroke="currentColor" stroke-width="0.576" stroke-linecap="round"
		stroke-linejoin="round" />
	<path d="M93.8585 23.52V18.72" stroke="currentColor" stroke-width="0.576" stroke-linecap="round"
		stroke-linejoin="round" />
	<path fill-rule="evenodd" clip-rule="evenodd"
		d="M101.49 30.3818L101.867 30.4521L102.167 30.5594L102.406 30.6989L102.609 30.8878L102.754 31.1165L102.845 31.3935L102.877 31.7307L102.856 31.9911L102.795 32.216L102.698 32.4114L102.563 32.5822L102.34 32.7761L102.085 32.9284L101.795 33.0403L103.143 35.1118H102.212L101.016 33.154H100.496V35.1118H99.6964V32.5686H100.496H101.085L101.383 32.544L101.613 32.4767L101.79 32.3739L101.922 32.2258L102.008 32.0183L102.04 31.7307L102.009 31.4665L101.927 31.273L101.798 31.1327L101.627 31.0371L101.39 30.9729L101.068 30.9487H100.496V32.5686H99.6964V30.356H101.023L101.49 30.3818Z"
		fill="currentColor" />
	<path fill-rule="evenodd" clip-rule="evenodd"
		d="M104.442 33.0818L104.735 33.1125L104.966 33.1975L105.158 33.3347L105.296 33.5086L105.381 33.713L105.409 33.9417L105.392 34.1397L105.34 34.3333L105.253 34.5226L105.117 34.7346L104.948 34.947L104.713 35.2022L104.097 35.7899H105.48L105.423 36.1867H103.531V35.8118L104.206 35.1417L104.454 34.8718L104.623 34.6651L104.757 34.4651L104.836 34.3023L104.883 34.1382L104.898 33.9727L104.882 33.8249L104.838 33.7066L104.768 33.611L104.673 33.5392L104.555 33.4946L104.406 33.4787L104.212 33.4987L104.063 33.5535L103.932 33.6469L103.791 33.7962L103.469 33.5516L103.663 33.3487L103.879 33.2032L104.127 33.114L104.442 33.0818Z"
		fill="currentColor" />
	<path d="M132.259 0.480011H113.059V8.16H132.259V0.480011Z" stroke="currentColor" stroke-width="0.96"
		stroke-linecap="round" stroke-linejoin="round" />
	<path d="M113.059 4.32001H108.259" stroke="currentColor" stroke-width="0.576" stroke-linecap="round"
		stroke-linejoin="round" />
	<path d="M132.259 4.32001H137.059" stroke="currentColor" stroke-width="0.576" stroke-linecap="round"
		stroke-linejoin="round" />
	<path fill-rule="evenodd" clip-rule="evenodd"
		d="M121.65 10.2221L122.027 10.2924L122.327 10.3997L122.566 10.5392L122.769 10.7282L122.914 10.9568L123.005 11.2339L123.037 11.571L123.016 11.8314L122.955 12.0563L122.858 12.2517L122.723 12.4225L122.5 12.6164L122.245 12.7688L121.955 12.8806L123.303 14.9522H122.372L121.176 12.9944H120.656V14.9522H119.856V12.4089H120.656H121.245L121.543 12.3844L121.773 12.3171L121.949 12.2143L122.082 12.0661L122.168 11.8586L122.2 11.571L122.169 11.3068L122.087 11.1133L121.958 10.9731L121.787 10.8775L121.55 10.8132L121.228 10.789H120.656V12.4089H119.856V10.1964H121.183L121.65 10.2221Z"
		fill="currentColor" />
	<path fill-rule="evenodd" clip-rule="evenodd"
		d="M124.592 12.9222L124.881 12.9502L125.113 13.028L125.309 13.1535L125.448 13.3081L125.536 13.491L125.565 13.6917L125.545 13.8731L125.487 14.0277L125.392 14.1615L125.268 14.2719L125.125 14.3539L124.961 14.4083L125.144 14.445L125.31 14.5145L125.454 14.6181L125.566 14.7591L125.636 14.9314L125.662 15.1582L125.628 15.4069L125.525 15.6291L125.363 15.8158L125.142 15.9632L124.88 16.0543L124.56 16.0864L124.279 16.06L124.014 15.9806L123.774 15.8479L123.574 15.6608L123.876 15.3963L124.018 15.5297L124.179 15.6215L124.356 15.676L124.537 15.6941L124.72 15.6763L124.867 15.6265L124.985 15.5475L125.076 15.4398L125.131 15.3067L125.151 15.1404L125.13 14.9511L125.074 14.8184L124.987 14.7273L124.807 14.6408L124.564 14.609H124.301L124.359 14.2454H124.544L124.746 14.2152L124.918 14.1271L125.005 14.0376L125.058 13.9196L125.078 13.7643L125.06 13.6248L125.009 13.5133L124.927 13.4237L124.761 13.3349L124.553 13.3036L124.369 13.3221L124.213 13.3742L124.07 13.4578L123.922 13.5772L123.66 13.2968L123.871 13.1301L124.094 13.0148L124.334 12.9456L124.592 12.9222Z"
		fill="currentColor" />
	<path d="M93.8586 47.52V61.92" stroke="currentColor" stroke-width="0.576" stroke-linecap="round"
		stroke-linejoin="round" />
	<path d="M36.2585 61.92H93.8585" stroke="currentColor" stroke-width="0.576" stroke-linecap="round"
		stroke-linejoin="round" />
	<path d="M79.4586 4.32001H93.8585" stroke="currentColor" stroke-width="0.576" stroke-linecap="round"
		stroke-linejoin="round" />
	<path d="M93.8586 4.32001V18.72" stroke="currentColor" stroke-width="0.576" stroke-linecap="round"
		stroke-linejoin="round" />
	<path d="M93.8586 4.32001H108.259" stroke="currentColor" stroke-width="0.576" stroke-linecap="round"
		stroke-linejoin="round" />
	<path d="M36.2585 52.32V61.92" stroke="currentColor" stroke-width="0.576" stroke-linecap="round"
		stroke-linejoin="round" />
	<path d="M36.2585 4.32001H50.6585" stroke="currentColor" stroke-width="0.576" stroke-linecap="round"
		stroke-linejoin="round" />
	<path d="M93.8586 61.92H151.459" stroke="currentColor" stroke-width="0.576" stroke-linecap="round"
		stroke-linejoin="round" />
	<path d="M151.459 47.52V61.92" stroke="currentColor" stroke-width="0.576" stroke-linecap="round"
		stroke-linejoin="round" />
	<path d="M151.459 4.32001V18.72" stroke="currentColor" stroke-width="0.576" stroke-linecap="round"
		stroke-linejoin="round" />
	<path d="M137.059 4.32001H151.459" stroke="currentColor" stroke-width="0.576" stroke-linecap="round"
		stroke-linejoin="round" />
	<path d="M36.2585 4.32001V13.92" stroke="currentColor" stroke-width="0.576" stroke-linecap="round"
		stroke-linejoin="round" />
	<path
		d="M93.8586 63.648C94.8129 63.648 95.5865 62.8744 95.5865 61.92C95.5865 60.9657 94.8129 60.192 93.8586 60.192C92.9042 60.192 92.1306 60.9657 92.1306 61.92C92.1306 62.8744 92.9042 63.648 93.8586 63.648Z"
		fill="currentColor" />
	<path
		d="M93.8586 6.048C94.8129 6.048 95.5865 5.27436 95.5865 4.32001C95.5865 3.36566 94.8129 2.59201 93.8586 2.59201C92.9042 2.59201 92.1306 3.36566 92.1306 4.32001C92.1306 5.27436 92.9042 6.048 93.8586 6.048Z"
		fill="currentColor" />
</svg>