<svg width="168" height="120" viewBox="0 0 168 120" fill="none" xmlns="http://www.w3.org/2000/svg">
	<path d="M28.032 45.216H40.416" stroke="currentColor" stroke-width="0.576" stroke-linecap="round"
		stroke-linejoin="round" />
	<path d="M21.216 45.216L27.936 41.376V49.056L21.216 45.216Z" stroke="currentColor" stroke-width="0.576"
		stroke-linecap="round" stroke-linejoin="round" />
	<path fill-rule="evenodd" clip-rule="evenodd"
		d="M25.7866 40.4878H28.7701V39.8226H27.6279V36.3885H28.7701V35.723H25.7866V36.3885H26.9291V39.8226H25.7866V40.4878Z"
		fill="currentColor" />
	<path fill-rule="evenodd" clip-rule="evenodd"
		d="M30.7498 38.4601L31.0148 38.5312L31.1323 38.5916L31.2396 38.6676L31.3398 38.7628L31.4286 38.8747L31.5102 39.0104L31.5783 39.1642L31.6365 39.3479L31.6788 39.5509L31.7064 39.7886L31.7158 40.0479L31.6981 40.396L31.6229 40.7913L31.4993 41.0986L31.3345 41.3303L31.1304 41.4966L31.0114 41.5567L30.8821 41.6005L30.7366 41.6285L30.5805 41.6376L30.4134 41.627L30.1481 41.5559L30.0302 41.4962L29.9225 41.4202L29.8219 41.325L29.7327 41.2139L29.6515 41.0782L29.5831 40.9251L29.5249 40.7426L29.4825 40.5407L29.4549 40.3045L29.4455 40.0479H29.9141L29.9209 40.2648L29.9765 40.6398L30.074 40.9009L30.2048 41.0748L30.283 41.1352L30.37 41.1791L30.4705 41.2071L30.5805 41.2165L30.6239 41.215L30.8178 41.1681L30.904 41.1179L30.9807 41.0502L31.0533 40.9576L31.1149 40.8446L31.1697 40.6953L31.2102 40.5211L31.2377 40.2996L31.2472 40.0479L31.24 39.8238L31.1833 39.4484L31.0851 39.1865L30.9539 39.0123L30.7895 38.9076L30.6897 38.8796L30.5805 38.8702L30.5366 38.8717L30.3439 38.9197L30.2581 38.9703L30.181 39.0387L30.1084 39.1325L30.0464 39.247L29.9916 39.3978L29.9512 39.5732L29.9236 39.7958L29.9141 40.0479H29.4455L29.4633 39.6937L29.5388 39.2965L29.6628 38.9885L29.8272 38.7564L30.0313 38.5901L30.1504 38.5296L30.2792 38.4862L30.4248 38.4582L30.5805 38.4488L30.7498 38.4601Z"
		fill="currentColor" />
	<path fill-rule="evenodd" clip-rule="evenodd"
		d="M32.0765 41.5627H34.2433V41.1371H32.6139L32.665 40.9822L32.8142 40.7921L33.0992 40.5638L33.4091 40.3786L33.6945 40.2138L33.9122 40.057L34.0244 39.9504L34.111 39.8393L34.1677 39.7349L34.207 39.6227L34.2391 39.3589L34.2395 39.3419L34.2301 39.1982L34.2025 39.0641L34.1586 38.9454L34.0985 38.8373L34.0244 38.7428L33.9356 38.6604L33.7149 38.5338L33.4326 38.4616L33.2289 38.4488L33.0527 38.4582L32.8902 38.4854L32.747 38.5281L32.617 38.5867L32.5032 38.6582L32.4023 38.7436L32.2416 38.9529L32.1339 39.216L32.0935 39.436L32.5621 39.4662L32.5943 39.3237L32.6426 39.1998L32.7005 39.1045L32.7715 39.0248L32.8517 38.9643L32.9439 38.9186L33.168 38.8721L33.2289 38.8702L33.3555 38.8796L33.4655 38.9061L33.5543 38.9465L33.6283 39.0006L33.7285 39.1419L33.7697 39.3294L33.7705 39.3589L33.761 39.473L33.7315 39.572L33.6272 39.7232L33.4288 39.874L33.2243 39.9889L32.9514 40.1435L32.722 40.297L32.5565 40.4304L32.4197 40.5668L32.3168 40.6953L32.2345 40.8287L32.1267 41.1084L32.0795 41.4387L32.0765 41.5627Z"
		fill="currentColor" />
	<path d="M136.416 45.216L129.696 49.056" stroke="currentColor" stroke-width="0.576" stroke-linecap="round"
		stroke-linejoin="round" />
	<path d="M136.416 45.216L129.696 41.376" stroke="currentColor" stroke-width="0.576" stroke-linecap="round"
		stroke-linejoin="round" />
	<path d="M136.416 45.216H117.216" stroke="currentColor" stroke-width="0.576" stroke-linecap="round"
		stroke-linejoin="round" />
	<path fill-rule="evenodd" clip-rule="evenodd"
		d="M119.768 40.6001L119.972 40.591L120.164 40.5631L120.338 40.5192L120.501 40.4591L120.647 40.3843L120.782 40.2951L121.012 40.0751L121.191 39.7992L121.317 39.464L121.385 39.0649L121.394 38.8336V35.723H120.689V38.8604L120.679 39.0573L120.652 39.2357L120.61 39.3838L120.552 39.515L120.485 39.6227L120.404 39.7153L120.313 39.7901L120.211 39.8502L119.97 39.9258L119.768 39.9421L119.613 39.9326L119.471 39.9047L119.351 39.862L119.243 39.8034L119.15 39.7319L119.069 39.6458L118.944 39.4292L118.867 39.1423L118.847 38.8604V35.723H118.142V38.8336L118.151 39.0641L118.179 39.2807L118.222 39.4757L118.282 39.6567L118.355 39.8181L118.442 39.9655L118.541 40.0951L118.653 40.2112L118.776 40.3117L118.912 40.3975L119.218 40.5256L119.577 40.5922L119.768 40.6001Z"
		fill="currentColor" />
	<path fill-rule="evenodd" clip-rule="evenodd"
		d="M123.258 38.5229L123.539 38.6003L123.759 38.7311L123.92 38.9106L123.979 39.0191L124.023 39.1386L124.05 39.2731L124.06 39.4186L124.025 39.6533L123.98 39.7675L123.919 39.8691L123.842 39.961L123.752 40.0381L123.543 40.1431L123.686 40.1825L123.848 40.28L123.91 40.351L123.958 40.4361L123.996 40.5544L124.017 40.6938L124.094 41.5627H123.642L123.574 40.78L123.552 40.6436L123.486 40.503L123.43 40.4508L123.358 40.4126L123.226 40.3809L123.053 40.3711H122.52V41.5627H122.069V39.9496H122.52H123.01L123.083 39.947L123.304 39.8997L123.459 39.8011L123.516 39.7323L123.558 39.6518L123.586 39.5524L123.595 39.4405L123.594 39.3956L123.549 39.2055L123.504 39.1283L123.444 39.0637L123.365 39.0085L123.27 38.9681L123.149 38.9405L123.01 38.9311H122.52V39.9496H122.069V38.5051H123.019L123.258 38.5229Z"
		fill="currentColor" />
	<path d="M78.816 33.6V21.216" stroke="currentColor" stroke-width="0.576" stroke-linecap="round"
		stroke-linejoin="round" />
	<path d="M78.816 40.416L74.976 33.696H82.656L78.816 40.416Z" stroke="currentColor" stroke-width="0.576"
		stroke-linecap="round" stroke-linejoin="round" />
	<path fill-rule="evenodd" clip-rule="evenodd"
		d="M87.2266 29.9282H90.2102V29.263H89.068V25.8289H90.2102V25.1634H87.2266V25.8289H88.3692V29.263H87.2266V29.9282Z"
		fill="currentColor" />
	<path fill-rule="evenodd" clip-rule="evenodd"
		d="M92.1899 27.9005L92.4548 27.9715L92.5724 28.032L92.6797 28.108L92.7799 28.2032L92.8687 28.3151L92.9503 28.4508L93.0183 28.6046L93.0766 28.7883L93.1189 28.9912L93.1465 29.229L93.1559 29.4882L93.1382 29.8363L93.063 30.2317L92.9394 30.539L92.7746 30.7706L92.5705 30.9369L92.4514 30.997L92.3222 31.0409L92.1767 31.0688L92.0206 31.0779L91.8535 31.0673L91.5882 30.9963L91.4703 30.9366L91.3625 30.8606L91.262 30.7654L91.1728 30.6542L91.0915 30.5186L91.0231 30.3655L90.9649 30.1829L90.9226 29.9811L90.895 29.7449L90.8856 29.4882H91.3542L91.361 29.7052L91.4166 30.0801L91.5141 30.3413L91.6449 30.5152L91.7231 30.5756L91.81 30.6195L91.9106 30.6474L92.0206 30.6569L92.064 30.6554L92.2579 30.6085L92.3441 30.5582L92.4208 30.4906L92.4934 30.398L92.555 30.285L92.6098 30.1357L92.6502 29.9615L92.6778 29.74L92.6873 29.4882L92.6801 29.2641L92.6234 28.8888L92.5251 28.6269L92.394 28.4527L92.2296 28.348L92.1298 28.32L92.0206 28.3105L91.9767 28.3121L91.784 28.3601L91.6982 28.4107L91.6211 28.4791L91.5485 28.5728L91.4865 28.6874L91.4317 28.8382L91.3913 29.0135L91.3637 29.2362L91.3542 29.4882H90.8856L90.9033 29.1341L90.9789 28.7369L91.1029 28.4288L91.2673 28.1968L91.4714 28.0305L91.5904 27.97L91.7193 27.9265L91.8648 27.8986L92.0206 27.8891L92.1899 27.9005Z"
		fill="currentColor" />
	<path fill-rule="evenodd" clip-rule="evenodd"
		d="M93.5505 31.0031H95.6493V30.5775H94.9354V27.9455H94.5567L94.5472 28.0974L94.5173 28.2187L94.4788 28.2943L94.4259 28.3533L94.2864 28.4228L94.0884 28.4447H93.7013V28.8272H94.4837V30.5775H93.5505V31.0031Z"
		fill="currentColor" />
	<path d="M78.816 85.632V98.016" stroke="currentColor" stroke-width="0.576" stroke-linecap="round"
		stroke-linejoin="round" />
	<path d="M78.816 78.816L74.976 85.536H82.656L78.816 78.816Z" stroke="currentColor" stroke-width="0.576"
		stroke-linecap="round" stroke-linejoin="round" />
	<path fill-rule="evenodd" clip-rule="evenodd"
		d="M87.2266 93.2878H90.2102V92.6226H89.068V89.1886H90.2102V88.523H87.2266V89.1886H88.3692V92.6226H87.2266V93.2878Z"
		fill="currentColor" />
	<path fill-rule="evenodd" clip-rule="evenodd"
		d="M92.1899 91.2601L92.4548 91.3312L92.5724 91.3917L92.6797 91.4676L92.7799 91.5629L92.8687 91.6747L92.9503 91.8104L93.0183 91.9642L93.0766 92.1479L93.1189 92.3509L93.1465 92.5886L93.1559 92.8479L93.1382 93.196L93.063 93.5913L92.9394 93.8986L92.7746 94.1303L92.5705 94.2966L92.4514 94.3567L92.3222 94.4005L92.1767 94.4285L92.0206 94.4376L91.8535 94.427L91.5882 94.3559L91.4703 94.2962L91.3625 94.2202L91.262 94.125L91.1728 94.0139L91.0915 93.8782L91.0231 93.7251L90.9649 93.5426L90.9226 93.3407L90.895 93.1045L90.8856 92.8479H91.3542L91.361 93.0648L91.4166 93.4398L91.5141 93.7009L91.6449 93.8748L91.7231 93.9353L91.81 93.9791L91.9106 94.0071L92.0206 94.0165L92.064 94.015L92.2579 93.9681L92.3441 93.9179L92.4208 93.8502L92.4934 93.7576L92.555 93.6446L92.6098 93.4953L92.6502 93.3211L92.6778 93.0996L92.6873 92.8479L92.6801 92.6238L92.6234 92.2485L92.5251 91.9865L92.394 91.8123L92.2296 91.7076L92.1298 91.6796L92.0206 91.6702L91.9767 91.6717L91.784 91.7197L91.6982 91.7704L91.6211 91.8388L91.5485 91.9325L91.4865 92.047L91.4317 92.1978L91.3913 92.3732L91.3637 92.5958L91.3542 92.8479H90.8856L90.9033 92.4938L90.9789 92.0965L91.1029 91.7885L91.2673 91.5564L91.4714 91.3901L91.5904 91.3297L91.7193 91.2862L91.8648 91.2582L92.0206 91.2488L92.1899 91.2601Z"
		fill="currentColor" />
	<path fill-rule="evenodd" clip-rule="evenodd"
		d="M94.5741 94.4376L94.7566 94.4285L94.9267 94.4009L95.0775 94.3578L95.2139 94.2985L95.3303 94.2278L95.432 94.1431L95.5144 94.0498L95.5817 93.9447L95.6316 93.8313L95.6652 93.707L95.6833 93.5123L95.6743 93.3797L95.6471 93.2569L95.6032 93.1453L95.5435 93.0444L95.3795 92.8766L95.1565 92.7572L95.0646 92.7281L95.1988 92.6759L95.3129 92.6102L95.4002 92.5384L95.4702 92.4552L95.5571 92.2647L95.5802 92.0716L95.5711 91.9386L95.5439 91.8157L95.5004 91.7057L95.4411 91.6063L95.2782 91.4415L95.054 91.3229L94.7657 91.2579L94.5956 91.2488L94.4229 91.2582L94.2653 91.2851L94.1269 91.3274L94.0037 91.3845L93.8971 91.4544L93.8049 91.5368L93.6654 91.736L93.5853 91.9809L93.5766 92.0368L94.0411 92.067L94.0646 91.9657L94.1058 91.8781L94.1587 91.8112L94.2267 91.7567L94.4081 91.6872L94.5914 91.6702L94.7283 91.6796L94.8454 91.708L94.9312 91.7477L95.0008 91.8021L95.0506 91.8652L95.0862 91.9408L95.1115 92.1101L95.1024 92.2129L95.0764 92.3006L94.9826 92.4303L94.8337 92.5142L94.6198 92.5512L94.5827 92.5516H94.3461V92.956H94.5827L94.7241 92.9654L94.8518 92.9938L94.9539 93.0357L95.0416 93.0936L95.1073 93.1601L95.1587 93.2402L95.1931 93.3298L95.2117 93.4322L95.2147 93.4991L95.2056 93.6076L95.1795 93.7017L95.0843 93.848L94.9327 93.9504L94.7177 94.0078L94.5786 94.0165L94.435 94.0071L94.3061 93.9768L94.2112 93.9341L94.13 93.8752L94.0702 93.8072L94.0234 93.724L93.9765 93.5335L93.5165 93.5638L93.5328 93.7093L93.5679 93.8442L93.6175 93.9617L93.6836 94.0687L93.763 94.1605L93.8574 94.2407L94.0899 94.3616L94.3877 94.4281L94.5741 94.4376Z"
		fill="currentColor" />
	<path d="M136.416 55.776H117.216V63.456H136.416V55.776Z" stroke="currentColor" stroke-width="0.96"
		stroke-linecap="round" stroke-linejoin="round" />
	<path d="M117.216 59.616H112.416" stroke="currentColor" stroke-width="0.576" stroke-linecap="round"
		stroke-linejoin="round" />
	<path d="M136.416 59.616H141.216" stroke="currentColor" stroke-width="0.576" stroke-linecap="round"
		stroke-linejoin="round" />
	<path fill-rule="evenodd" clip-rule="evenodd"
		d="M126.796 71.2441L127.205 71.2876L127.55 71.3923L127.833 71.5499L128.057 71.7562L128.147 71.8776L128.222 72.0102L128.282 72.1561L128.326 72.313L128.354 72.4846L128.363 72.6671L128.33 72.9593L128.285 73.1055L128.223 73.2405L128.144 73.3682L128.05 73.4827L127.941 73.5848L127.821 73.6717L127.557 73.7949L127.722 73.8357L127.948 73.9427L128.038 74.0138L128.114 74.098L128.18 74.2024L128.231 74.3218L128.272 74.4771L128.296 74.654L128.417 76.0082H127.711L127.604 74.7878L127.581 74.6211L127.51 74.4204L127.459 74.346L127.394 74.2847L127.303 74.2311L127.193 74.1918L127.013 74.1608L126.791 74.1509H125.957V76.0082H125.252V73.4926H125.957H126.723L126.836 73.4888L127.124 73.4363L127.341 73.3308L127.499 73.177L127.558 73.0795L127.6 72.9702L127.628 72.8417L127.637 72.7008L127.635 72.6278L127.586 72.3844L127.476 72.192L127.398 72.1119L127.304 72.0446L127.189 71.9876L127.058 71.946L126.9 71.918L126.723 71.909H125.957V73.4926H125.252V71.2434H126.737L126.796 71.2441Z"
		fill="currentColor" />
	<path
		d="M59.616 40.416C64.9179 40.416 69.216 36.118 69.216 30.816C69.216 25.5141 64.9179 21.216 59.616 21.216C54.3141 21.216 50.016 25.5141 50.016 30.816C50.016 36.118 54.3141 40.416 59.616 40.416Z"
		stroke="currentColor" stroke-width="0.96" stroke-linecap="round" stroke-linejoin="round" />
	<path d="M59.616 21.216V11.616" stroke="currentColor" stroke-width="0.576" stroke-linecap="round"
		stroke-linejoin="round" />
	<path d="M59.616 40.416V50.016" stroke="currentColor" stroke-width="0.576" stroke-linecap="round"
		stroke-linejoin="round" />
	<path
		d="M59.616 98.016C64.9179 98.016 69.216 93.718 69.216 88.416C69.216 83.1141 64.9179 78.816 59.616 78.816C54.3141 78.816 50.016 83.1141 50.016 88.416C50.016 93.718 54.3141 98.016 59.616 98.016Z"
		stroke="currentColor" stroke-width="0.96" stroke-linecap="round" stroke-linejoin="round" />
	<path d="M59.616 78.816V69.216" stroke="currentColor" stroke-width="0.576" stroke-linecap="round"
		stroke-linejoin="round" />
	<path d="M59.616 98.016V107.616" stroke="currentColor" stroke-width="0.576" stroke-linecap="round"
		stroke-linejoin="round" />
	<path
		d="M30.816 69.216C36.1179 69.216 40.416 64.918 40.416 59.616C40.416 54.3141 36.1179 50.016 30.816 50.016C25.5141 50.016 21.216 54.3141 21.216 59.616C21.216 64.918 25.5141 69.216 30.816 69.216Z"
		stroke="currentColor" stroke-width="0.96" stroke-linecap="round" stroke-linejoin="round" />
	<path d="M21.216 59.6161H11.616" stroke="currentColor" stroke-width="0.576" stroke-linecap="round"
		stroke-linejoin="round" />
	<path d="M40.4161 59.6161H50.0161" stroke="currentColor" stroke-width="0.576" stroke-linecap="round"
		stroke-linejoin="round" />
	<path d="M2.01605 117.216V59.6161" stroke="currentColor" stroke-width="0.576" stroke-linecap="round"
		stroke-linejoin="round" />
	<path d="M59.616 107.616V117.216" stroke="currentColor" stroke-width="0.576" stroke-linecap="round"
		stroke-linejoin="round" />
	<path d="M59.616 59.6161H112.416" stroke="currentColor" stroke-width="0.576" stroke-linecap="round"
		stroke-linejoin="round" />
	<path d="M165.216 2.01602V59.616" stroke="currentColor" stroke-width="0.576" stroke-linecap="round"
		stroke-linejoin="round" />
	<path d="M141.216 59.6161H165.216" stroke="currentColor" stroke-width="0.576" stroke-linecap="round"
		stroke-linejoin="round" />
	<path d="M59.616 2.01602H165.216" stroke="currentColor" stroke-width="0.576" stroke-linecap="round"
		stroke-linejoin="round" />
	<path d="M50.0161 59.6161H59.6161" stroke="currentColor" stroke-width="0.576" stroke-linecap="round"
		stroke-linejoin="round" />
	<path d="M165.216 59.6161V117.216" stroke="currentColor" stroke-width="0.576" stroke-linecap="round"
		stroke-linejoin="round" />
	<path d="M165.216 117.216H59.616" stroke="currentColor" stroke-width="0.576" stroke-linecap="round"
		stroke-linejoin="round" />
	<path d="M59.616 59.6161V69.2161" stroke="currentColor" stroke-width="0.576" stroke-linecap="round"
		stroke-linejoin="round" />
	<path d="M59.616 50.016V59.616" stroke="currentColor" stroke-width="0.576" stroke-linecap="round"
		stroke-linejoin="round" />
	<path d="M59.616 117.216H2.01605" stroke="currentColor" stroke-width="0.576" stroke-linecap="round"
		stroke-linejoin="round" />
	<path d="M59.616 11.616V2.01602" stroke="currentColor" stroke-width="0.576" stroke-linecap="round"
		stroke-linejoin="round" />
	<path d="M11.616 59.6161H2.01605" stroke="currentColor" stroke-width="0.576" stroke-linecap="round"
		stroke-linejoin="round" />
	<path d="M2.01605 2.01602H59.616" stroke="currentColor" stroke-width="0.576" stroke-linecap="round"
		stroke-linejoin="round" />
	<path d="M2.01605 59.616V2.01602" stroke="currentColor" stroke-width="0.576" stroke-linecap="round"
		stroke-linejoin="round" />
	<path d="M59.616 78.816V69.216" stroke="currentColor" stroke-width="0.576" stroke-linecap="round"
		stroke-linejoin="round" />
	<path d="M59.616 98.016V107.616" stroke="currentColor" stroke-width="0.576" stroke-linecap="round"
		stroke-linejoin="round" />
	<path d="M21.216 59.6161H11.616" stroke="currentColor" stroke-width="0.576" stroke-linecap="round"
		stroke-linejoin="round" />
	<path d="M40.4161 59.6161H50.0161" stroke="currentColor" stroke-width="0.576" stroke-linecap="round"
		stroke-linejoin="round" />
	<path d="M59.616 21.216V11.616" stroke="currentColor" stroke-width="0.576" stroke-linecap="round"
		stroke-linejoin="round" />
	<path d="M59.616 40.416V50.0161" stroke="currentColor" stroke-width="0.576" stroke-linecap="round"
		stroke-linejoin="round" />
	<path
		d="M59.616 118.944C60.5703 118.944 61.344 118.17 61.344 117.216C61.344 116.262 60.5703 115.488 59.616 115.488C58.6616 115.488 57.888 116.262 57.888 117.216C57.888 118.17 58.6616 118.944 59.616 118.944Z"
		fill="currentColor" stroke="currentColor" stroke-width="0.576" stroke-linecap="round" stroke-linejoin="round" />
	<path
		d="M59.616 61.344C60.5703 61.344 61.344 60.5704 61.344 59.616C61.344 58.6617 60.5703 57.888 59.616 57.888C58.6616 57.888 57.888 58.6617 57.888 59.616C57.888 60.5704 58.6616 61.344 59.616 61.344Z"
		fill="currentColor" stroke="currentColor" stroke-width="0.576" stroke-linecap="round" stroke-linejoin="round" />
	<path
		d="M2.01604 61.344C2.97038 61.344 3.74403 60.5704 3.74403 59.616C3.74403 58.6617 2.97038 57.888 2.01604 57.888C1.06169 57.888 0.288025 58.6617 0.288025 59.616C0.288025 60.5704 1.06169 61.344 2.01604 61.344Z"
		fill="currentColor" stroke="currentColor" stroke-width="0.576" stroke-linecap="round" stroke-linejoin="round" />
	<path
		d="M59.616 3.74399C60.5703 3.74399 61.344 2.97034 61.344 2.01599C61.344 1.06164 60.5703 0.287994 59.616 0.287994C58.6616 0.287994 57.888 1.06164 57.888 2.01599C57.888 2.97034 58.6616 3.74399 59.616 3.74399Z"
		fill="currentColor" stroke="currentColor" stroke-width="0.576" stroke-linecap="round" stroke-linejoin="round" />
	<path
		d="M165.216 61.344C166.17 61.344 166.944 60.5704 166.944 59.616C166.944 58.6617 166.17 57.888 165.216 57.888C164.262 57.888 163.488 58.6617 163.488 59.616C163.488 60.5704 164.262 61.344 165.216 61.344Z"
		fill="currentColor" stroke="currentColor" stroke-width="0.576" stroke-linecap="round" stroke-linejoin="round" />
</svg>