<svg width="166" height="70" viewBox="0 0 166 70" fill="none" xmlns="http://www.w3.org/2000/svg">
	<path d="M152.589 28.4209H144.909V47.6209H152.589V28.4209Z" stroke="currentColor" stroke-width="0.96"
		stroke-linecap="round" stroke-linejoin="round" />
	<path d="M148.749 47.6209V52.4209" stroke="currentColor" stroke-width="0.576" stroke-linecap="round"
		stroke-linejoin="round" />
	<path d="M148.749 28.4209V23.6209" stroke="currentColor" stroke-width="0.576" stroke-linecap="round"
		stroke-linejoin="round" />
	<path fill-rule="evenodd" clip-rule="evenodd"
		d="M157.341 35.2826L157.717 35.3529L158.018 35.4603L158.257 35.5997L158.46 35.7887L158.605 36.0174L158.696 36.2944L158.728 36.6316L158.707 36.892L158.646 37.1169L158.549 37.3123L158.414 37.4831L158.191 37.677L157.936 37.8293L157.646 37.9412L158.993 40.0127H158.063L156.867 38.0549H156.347V40.0127H155.547V37.4695H156.347H156.936L157.234 37.4449L157.463 37.3776L157.64 37.2748L157.773 37.1267L157.858 36.9192L157.891 36.6316L157.86 36.3674L157.778 36.1739L157.649 36.0336L157.478 35.938L157.241 35.8738L156.919 35.8496H156.347V37.4695H155.547V35.257H156.874L157.341 35.2826Z"
		fill="currentColor" />
	<path fill-rule="evenodd" clip-rule="evenodd"
		d="M160.283 37.9827L160.572 38.0107L160.804 38.0886L161 38.214L161.139 38.3686L161.227 38.5516L161.256 38.7523L161.236 38.9337L161.178 39.0882L161.083 39.222L160.958 39.3324L160.816 39.4144L160.652 39.4688L160.835 39.5055L161.001 39.575L161.145 39.6786L161.257 39.8196L161.327 39.9919L161.353 40.2187L161.319 40.4674L161.216 40.6896L161.054 40.8763L160.832 41.0237L160.571 41.1148L160.25 41.147L159.97 41.1205L159.705 41.0411L159.465 40.9085L159.265 40.7214L159.567 40.4568L159.709 40.5902L159.87 40.6821L160.046 40.7365L160.228 40.7546L160.411 40.7369L160.558 40.687L160.676 40.608L160.766 40.5003L160.822 40.3672L160.842 40.2009L160.82 40.0116L160.765 39.8789L160.678 39.7878L160.498 39.7013L160.255 39.6695H159.992L160.049 39.306H160.235L160.437 39.2757L160.608 39.1877L160.695 39.0981L160.749 38.9802L160.769 38.8248L160.75 38.6854L160.7 38.5738L160.617 38.4843L160.452 38.3955L160.244 38.3641L160.06 38.3826L159.904 38.4348L159.761 38.5183L159.613 38.6377L159.351 38.3573L159.562 38.1906L159.785 38.0753L160.025 38.0062L160.283 37.9827Z"
		fill="currentColor" />
	<path d="M56.5894 28.4209H48.9094V47.6209H56.5894V28.4209Z" stroke="currentColor" stroke-width="0.96"
		stroke-linecap="round" stroke-linejoin="round" />
	<path d="M52.7493 47.6209V52.4209" stroke="currentColor" stroke-width="0.576" stroke-linecap="round"
		stroke-linejoin="round" />
	<path d="M52.7493 28.4209V23.6209" stroke="currentColor" stroke-width="0.576" stroke-linecap="round"
		stroke-linejoin="round" />
	<path fill-rule="evenodd" clip-rule="evenodd"
		d="M61.341 35.2826L61.7174 35.3529L62.0183 35.4603L62.2571 35.5997L62.4597 35.7887L62.6048 36.0174L62.6956 36.2944L62.7277 36.6316L62.7065 36.892L62.646 37.1169L62.5489 37.3123L62.4139 37.4831L62.1906 37.677L61.9363 37.8293L61.6456 37.9412L62.9934 40.0127H62.0628L60.867 38.0549H60.3466V40.0127H59.5472V37.4695H60.3466H60.9358L61.2336 37.4449L61.4634 37.3776L61.6403 37.2748L61.7729 37.1267L61.8584 36.9192L61.8905 36.6316L61.8599 36.3674L61.7779 36.1739L61.649 36.0336L61.4778 35.938L61.2412 35.8738L60.9188 35.8496H60.3466V37.4695H59.5472V35.257H60.8738L61.341 35.2826Z"
		fill="currentColor" />
	<path fill-rule="evenodd" clip-rule="evenodd"
		d="M64.4137 37.6188L64.5475 37.6418L64.6484 37.7072L64.715 37.8055L64.7376 37.9276L64.7153 38.0496L64.6484 38.1502L64.5471 38.2171L64.4137 38.2405L64.2833 38.2175L64.1816 38.1502L64.1144 38.0496L64.0913 37.9276L64.1144 37.8055L64.1816 37.7072L64.2833 37.6415L64.4137 37.6188Z"
		fill="currentColor" />
	<path fill-rule="evenodd" clip-rule="evenodd"
		d="M64.7576 38.7591V40.7259H65.3903V41.0876H63.5667V40.7259H64.2637V39.1204H63.5886V38.7591H64.7576Z"
		fill="currentColor" />
	<path
		d="M33.5493 47.6209C38.8513 47.6209 43.1493 43.3229 43.1493 38.0209C43.1493 32.719 38.8513 28.4209 33.5493 28.4209C28.2474 28.4209 23.9493 32.719 23.9493 38.0209C23.9493 43.3229 28.2474 47.6209 33.5493 47.6209Z"
		stroke="currentColor" stroke-width="0.96" stroke-linecap="round" stroke-linejoin="round" />
	<path d="M33.5493 47.6209V57.2209" stroke="currentColor" stroke-width="0.576" stroke-linecap="round"
		stroke-linejoin="round" />
	<path d="M33.5493 28.4209V18.8209" stroke="currentColor" stroke-width="0.576" stroke-linecap="round"
		stroke-linejoin="round" />
	<path d="M14.3493 35.2369V47.6209" stroke="currentColor" stroke-width="0.576" stroke-linecap="round"
		stroke-linejoin="round" />
	<path d="M14.3493 28.4209L18.1893 35.1409H10.5093L14.3493 28.4209Z" stroke="currentColor" stroke-width="0.576"
		stroke-linecap="round" stroke-linejoin="round" />
	<path fill-rule="evenodd" clip-rule="evenodd"
		d="M6.77895 41.0169V41.6266H5.75206V45.1589H6.77895V45.7727H3.91858V45.1589H4.94547V41.6266H3.91858V41.0169H6.77895Z"
		fill="currentColor" />
	<path fill-rule="evenodd" clip-rule="evenodd"
		d="M8.7337 43.3788L8.86749 43.4018L8.96842 43.4672L9.03491 43.5655L9.05758 43.6876L9.03532 43.8097L8.96842 43.9102L8.86709 43.9771L8.7337 44.0005L8.6033 43.9775L8.50163 43.9102L8.43438 43.8097L8.41132 43.6876L8.43438 43.5655L8.50163 43.4672L8.6033 43.4015L8.7337 43.3788Z"
		fill="currentColor" />
	<path fill-rule="evenodd" clip-rule="evenodd"
		d="M9.07768 44.5191V46.4859H9.71039V46.8476H7.88672V46.4859H8.58367V44.8804H7.90869V44.5191H9.07768Z"
		fill="currentColor" />
	<path d="M94.9894 28.4209H87.3093V47.6209H94.9894V28.4209Z" stroke="currentColor" stroke-width="0.96"
		stroke-linecap="round" stroke-linejoin="round" />
	<path d="M91.1494 47.6209V52.4209" stroke="currentColor" stroke-width="0.576" stroke-linecap="round"
		stroke-linejoin="round" />
	<path d="M91.1494 28.4209V23.6209" stroke="currentColor" stroke-width="0.576" stroke-linecap="round"
		stroke-linejoin="round" />
	<path fill-rule="evenodd" clip-rule="evenodd"
		d="M104.541 35.2826L104.917 35.3529L105.218 35.4603L105.457 35.5997L105.66 35.7887L105.805 36.0174L105.896 36.2944L105.928 36.6316L105.906 36.892L105.846 37.1169L105.749 37.3123L105.614 37.4831L105.391 37.677L105.136 37.8293L104.846 37.9412L106.193 40.0127H105.263L104.067 38.0549H103.547V40.0127H102.747V37.4695H103.547H104.136L104.434 37.4449L104.663 37.3776L104.84 37.2748L104.973 37.1267L105.058 36.9192L105.09 36.6316L105.06 36.3674L104.978 36.1739L104.849 36.0336L104.678 35.938L104.441 35.8738L104.119 35.8496H103.547V37.4695H102.747V35.257H104.074L104.541 35.2826Z"
		fill="currentColor" />
	<path fill-rule="evenodd" clip-rule="evenodd"
		d="M108.63 40.6995V41.0876H106.789V40.6995H107.532V38.5516L106.862 38.9639L106.65 38.6177L107.585 38.0443H108.021V40.6995H108.63Z"
		fill="currentColor" />
	<path d="M129.549 5.38091H110.349V13.0609H129.549V5.38091Z" stroke="currentColor" stroke-width="0.96"
		stroke-linecap="round" stroke-linejoin="round" />
	<path d="M110.349 9.22092H105.549" stroke="currentColor" stroke-width="0.576" stroke-linecap="round"
		stroke-linejoin="round" />
	<path d="M129.549 9.22092H134.349" stroke="currentColor" stroke-width="0.576" stroke-linecap="round"
		stroke-linejoin="round" />
	<path fill-rule="evenodd" clip-rule="evenodd"
		d="M118.941 15.123L119.317 15.1933L119.618 15.3007L119.857 15.4401L120.06 15.6291L120.205 15.8578L120.296 16.1348L120.328 16.4719L120.306 16.7323L120.246 16.9572L120.149 17.1526L120.014 17.3235L119.791 17.5174L119.536 17.6697L119.246 17.7815L120.593 19.8531H119.663L118.467 17.8953H117.947V19.8531H117.147V17.3099H117.947H118.536L118.834 17.2853L119.063 17.218L119.24 17.1152L119.373 16.9671L119.458 16.7596L119.491 16.4719L119.46 16.2077L119.378 16.0142L119.249 15.874L119.078 15.7784L118.841 15.7141L118.519 15.6899H117.947V17.3099H117.147V15.0973H118.474L118.941 15.123Z"
		fill="currentColor" />
	<path fill-rule="evenodd" clip-rule="evenodd"
		d="M121.892 17.8231L122.185 17.8537L122.417 17.9388L122.609 18.076L122.747 18.2498L122.832 18.4543L122.86 18.683L122.843 18.881L122.791 19.0745L122.704 19.2639L122.568 19.4759L122.399 19.6883L122.163 19.9434L121.548 20.5311H122.931L122.874 20.928H120.981V20.5531L121.657 19.883L121.905 19.6131L122.074 19.4064L122.208 19.2064L122.287 19.0435L122.333 18.8795L122.349 18.7139L122.333 18.5662L122.289 18.4479L122.219 18.3523L122.124 18.2804L122.006 18.2358L121.857 18.22L121.663 18.24L121.514 18.2948L121.383 18.3882L121.242 18.5374L120.919 18.2929L121.114 18.0899L121.33 17.9444L121.578 17.8552L121.892 17.8231Z"
		fill="currentColor" />
	<path d="M33.5494 66.8209H52.7494" stroke="currentColor" stroke-width="0.576" stroke-linecap="round"
		stroke-linejoin="round" />
	<path d="M33.5494 66.8209V57.2209" stroke="currentColor" stroke-width="0.576" stroke-linecap="round"
		stroke-linejoin="round" />
	<path d="M52.7494 52.4209V66.8209" stroke="currentColor" stroke-width="0.576" stroke-linecap="round"
		stroke-linejoin="round" />
	<path d="M52.7494 66.8209H91.1494" stroke="currentColor" stroke-width="0.576" stroke-linecap="round"
		stroke-linejoin="round" />
	<path d="M52.7494 9.22092H91.1494" stroke="currentColor" stroke-width="0.576" stroke-linecap="round"
		stroke-linejoin="round" />
	<path d="M91.1494 52.4209V66.8209" stroke="currentColor" stroke-width="0.576" stroke-linecap="round"
		stroke-linejoin="round" />
	<path d="M33.5494 18.8209V9.22092" stroke="currentColor" stroke-width="0.576" stroke-linecap="round"
		stroke-linejoin="round" />
	<path d="M52.7494 9.22092V23.6209" stroke="currentColor" stroke-width="0.576" stroke-linecap="round"
		stroke-linejoin="round" />
	<path d="M33.5494 9.22092H52.7494" stroke="currentColor" stroke-width="0.576" stroke-linecap="round"
		stroke-linejoin="round" />
	<path d="M134.349 9.22092H148.749" stroke="currentColor" stroke-width="0.576" stroke-linecap="round"
		stroke-linejoin="round" />
	<path d="M91.1494 9.22092H105.549" stroke="currentColor" stroke-width="0.576" stroke-linecap="round"
		stroke-linejoin="round" />
	<path d="M91.1494 66.8209H148.749" stroke="currentColor" stroke-width="0.576" stroke-linecap="round"
		stroke-linejoin="round" />
	<path d="M148.749 52.4209V66.8209" stroke="currentColor" stroke-width="0.576" stroke-linecap="round"
		stroke-linejoin="round" />
	<path d="M148.749 23.6209V9.22092" stroke="currentColor" stroke-width="0.576" stroke-linecap="round"
		stroke-linejoin="round" />
	<path d="M91.1494 23.6209V9.22092" stroke="currentColor" stroke-width="0.576" stroke-linecap="round"
		stroke-linejoin="round" />
	<path fill-rule="evenodd" clip-rule="evenodd"
		d="M154.631 58.851L154.945 58.8949L155.244 58.9742L155.502 59.0895L155.724 59.2505L155.893 59.4584L155.971 59.6194L156.021 59.8106L156.038 60.0389L156.005 60.3228L155.914 60.5492L155.77 60.7393L155.588 60.8886L155.379 60.9993L155.159 61.0726L155.414 61.1358L155.667 61.2367L155.895 61.3837L156.081 61.5916L156.168 61.7567L156.225 61.9627L156.245 62.2201L156.226 62.4809L156.173 62.699L156.09 62.8819L155.974 63.0471L155.834 63.1873L155.669 63.3041L155.391 63.4367L155.075 63.5267L154.742 63.5754L154.394 63.5921H153.002V62.9719H153.801H154.446L154.671 62.9575L154.895 62.9148L155.1 62.8309L155.265 62.6959L155.342 62.5792L155.392 62.4234L155.411 62.2171L155.395 62.0084L155.352 61.8471L155.287 61.7227L155.142 61.5719L154.953 61.4744L154.734 61.4222L154.48 61.4037H153.801V62.9719H153.002V60.8107H153.801H154.422L154.684 60.7892L154.88 60.7314L155.024 60.6437L155.133 60.5178L155.202 60.3436L155.228 60.1043L155.2 59.8768L155.124 59.7109L155.004 59.5911L154.847 59.5094L154.641 59.4558L154.373 59.4357H153.801V60.8107H153.002V58.8363H154.301L154.631 58.851Z"
		fill="currentColor" />
	<path fill-rule="evenodd" clip-rule="evenodd"
		d="M156.524 5.99206H155.676L155.345 4.84762H153.647L153.316 5.99206H152.502L153.063 4.23081H153.812H155.176L154.498 1.85651L153.812 4.23081H153.063L154.015 1.23628H155.007L156.524 5.99206Z"
		fill="currentColor" />
	<path
		d="M148.749 69.2209C150.075 69.2209 151.149 68.1464 151.149 66.8209C151.149 65.4954 150.075 64.4209 148.749 64.4209C147.424 64.4209 146.349 65.4954 146.349 66.8209C146.349 68.1464 147.424 69.2209 148.749 69.2209Z"
		stroke="currentColor" stroke-width="0.576" stroke-linecap="round" stroke-linejoin="round" />
	<path
		d="M148.749 11.6209C150.075 11.6209 151.149 10.5464 151.149 9.22092C151.149 7.89543 150.075 6.82092 148.749 6.82092C147.424 6.82092 146.349 7.89543 146.349 9.22092C146.349 10.5464 147.424 11.6209 148.749 11.6209Z"
		stroke="currentColor" stroke-width="0.576" stroke-linecap="round" stroke-linejoin="round" />
	<path
		d="M52.7493 68.5489C53.7036 68.5489 54.4773 67.7753 54.4773 66.8209C54.4773 65.8666 53.7036 65.0929 52.7493 65.0929C51.7949 65.0929 51.0213 65.8666 51.0213 66.8209C51.0213 67.7753 51.7949 68.5489 52.7493 68.5489Z"
		fill="currentColor" />
	<path
		d="M52.7493 10.9489C53.7036 10.9489 54.4773 10.1753 54.4773 9.22092C54.4773 8.26657 53.7036 7.49291 52.7493 7.49291C51.7949 7.49291 51.0213 8.26657 51.0213 9.22092C51.0213 10.1753 51.7949 10.9489 52.7493 10.9489Z"
		fill="currentColor" />
	<path
		d="M91.1493 10.9489C92.1037 10.9489 92.8773 10.1753 92.8773 9.22092C92.8773 8.26657 92.1037 7.49291 91.1493 7.49291C90.195 7.49291 89.4213 8.26657 89.4213 9.22092C89.4213 10.1753 90.195 10.9489 91.1493 10.9489Z"
		fill="currentColor" />
	<path
		d="M91.1493 68.5489C92.1037 68.5489 92.8773 67.7753 92.8773 66.8209C92.8773 65.8666 92.1037 65.0929 91.1493 65.0929C90.195 65.0929 89.4213 65.8666 89.4213 66.8209C89.4213 67.7753 90.195 68.5489 91.1493 68.5489Z"
		fill="currentColor" />
</svg>