<svg width="171" height="90" viewBox="0 0 171 90" fill="none" xmlns="http://www.w3.org/2000/svg">
	<path d="M85.3892 54.528H77.7092V73.728H85.3892V54.528Z" stroke="currentColor" stroke-width="0.96"
		stroke-linecap="round" stroke-linejoin="round" />
	<path d="M81.5493 73.728V78.528" stroke="currentColor" stroke-width="0.576" stroke-linecap="round"
		stroke-linejoin="round" />
	<path d="M81.5493 54.528V49.728" stroke="currentColor" stroke-width="0.576" stroke-linecap="round"
		stroke-linejoin="round" />
	<path fill-rule="evenodd" clip-rule="evenodd"
		d="M90.1409 61.3897L90.5174 61.46L90.8182 61.5674L91.0571 61.7068L91.2597 61.8958L91.4048 62.1245L91.4955 62.4015L91.5276 62.7387L91.5065 62.9991L91.446 63.2239L91.3489 63.4193L91.2139 63.5902L90.9905 63.7841L90.7362 63.9364L90.4456 64.0483L91.7933 66.1198H90.8628L89.667 64.162H89.1465V66.1198H88.3472V63.5766H89.1465H89.7357L90.0336 63.552L90.2634 63.4847L90.4403 63.3819L90.5729 63.2338L90.6583 63.0263L90.6905 62.7387L90.6598 62.4745L90.5778 62.281L90.449 62.1407L90.2777 62.0451L90.0411 61.9809L89.7188 61.9567H89.1465V63.5766H88.3472V61.364H89.6738L90.1409 61.3897Z"
		fill="currentColor" />
	<path fill-rule="evenodd" clip-rule="evenodd"
		d="M93.0923 64.0898L93.3853 64.1204L93.6169 64.2055L93.809 64.3427L93.9465 64.5165L94.0316 64.721L94.0603 64.9497L94.0429 65.1477L93.9907 65.3412L93.9038 65.5306L93.7681 65.7426L93.5988 65.955L93.3633 66.2101L92.748 66.7979H94.131L94.0735 67.1947H92.1815V66.8198L92.8573 66.1497L93.1052 65.8798L93.2738 65.6731L93.4079 65.4731L93.4869 65.3102L93.5334 65.1462L93.5489 64.9807L93.533 64.8329L93.4892 64.7146L93.4185 64.619L93.324 64.5472L93.2057 64.5026L93.0568 64.4867L92.8629 64.5067L92.7136 64.5615L92.5825 64.6549L92.4419 64.8042L92.1195 64.5596L92.3141 64.3567L92.5296 64.2111L92.7775 64.122L93.0923 64.0898Z"
		fill="currentColor" />
	<path d="M157.389 35.328H149.709V54.528H157.389V35.328Z" stroke="currentColor" stroke-width="0.96"
		stroke-linecap="round" stroke-linejoin="round" />
	<path d="M153.549 54.528V59.328" stroke="currentColor" stroke-width="0.576" stroke-linecap="round"
		stroke-linejoin="round" />
	<path d="M153.549 35.328V30.528" stroke="currentColor" stroke-width="0.576" stroke-linecap="round"
		stroke-linejoin="round" />
	<path fill-rule="evenodd" clip-rule="evenodd"
		d="M162.141 42.1897L162.517 42.26L162.818 42.3674L163.057 42.5068L163.26 42.6958L163.405 42.9245L163.496 43.2015L163.528 43.5387L163.506 43.7991L163.446 44.0239L163.349 44.2193L163.214 44.3902L162.991 44.5841L162.736 44.7364L162.446 44.8483L163.793 46.9198H162.863L161.667 44.962H161.147V46.9198H160.347V44.3766H161.147H161.736L162.034 44.352L162.263 44.2847L162.44 44.1819L162.573 44.0338L162.658 43.8263L162.69 43.5387L162.66 43.2745L162.578 43.081L162.449 42.9407L162.278 42.8451L162.041 42.7809L161.719 42.7567H161.147V44.3766H160.347V42.164H161.674L162.141 42.1897Z"
		fill="currentColor" />
	<path fill-rule="evenodd" clip-rule="evenodd"
		d="M165.904 46.0959V46.9096H166.266V47.2932H165.904V47.9947H165.43L165.428 47.2932H164.164V46.9497L165.039 44.8898L165.456 45.055L164.68 46.9096H165.43L165.489 46.0959H165.904Z"
		fill="currentColor" />
	<path d="M14.3492 47.712V35.328" stroke="currentColor" stroke-width="0.576" stroke-linecap="round"
		stroke-linejoin="round" />
	<path d="M14.3493 54.528L18.1893 47.808H10.5093L14.3493 54.528Z" stroke="currentColor" stroke-width="0.576"
		stroke-linecap="round" stroke-linejoin="round" />
	<path fill-rule="evenodd" clip-rule="evenodd"
		d="M6.77892 36.4044V37.014H5.75203V40.5464H6.77892V41.1602H3.91858V40.5464H4.94547V37.014H3.91858V36.4044H6.77892Z"
		fill="currentColor" />
	<path fill-rule="evenodd" clip-rule="evenodd"
		d="M8.73379 38.7662L8.86755 38.7893L8.96848 38.8547L9.035 38.9529L9.05767 39.075L9.03538 39.1971L8.96848 39.2976L8.86718 39.3645L8.73379 39.388L8.60339 39.3649L8.50172 39.2976L8.43445 39.1971L8.41138 39.075L8.43445 38.9529L8.50172 38.8547L8.60339 38.7889L8.73379 38.7662Z"
		fill="currentColor" />
	<path fill-rule="evenodd" clip-rule="evenodd"
		d="M9.07765 39.9065V41.8734H9.71036V42.2351H7.88672V41.8734H8.58367V40.2678H7.90863V39.9065H9.07765Z"
		fill="currentColor" />
	<path
		d="M33.5492 54.528C38.8512 54.528 43.1492 50.2299 43.1492 44.928C43.1492 39.6261 38.8512 35.328 33.5492 35.328C28.2473 35.328 23.9492 39.6261 23.9492 44.928C23.9492 50.2299 28.2473 54.528 33.5492 54.528Z"
		stroke="currentColor" stroke-width="0.96" stroke-linecap="round" stroke-linejoin="round" />
	<path d="M33.5493 54.528V64.128" stroke="currentColor" stroke-width="0.576" stroke-linecap="round"
		stroke-linejoin="round" />
	<path d="M33.5493 35.328V25.728" stroke="currentColor" stroke-width="0.576" stroke-linecap="round"
		stroke-linejoin="round" />
	<path d="M85.3892 16.128H77.7092V35.328H85.3892V16.128Z" stroke="currentColor" stroke-width="0.96"
		stroke-linecap="round" stroke-linejoin="round" />
	<path d="M81.5493 35.328V40.128" stroke="currentColor" stroke-width="0.576" stroke-linecap="round"
		stroke-linejoin="round" />
	<path d="M81.5493 16.128V11.328" stroke="currentColor" stroke-width="0.576" stroke-linecap="round"
		stroke-linejoin="round" />
	<path fill-rule="evenodd" clip-rule="evenodd"
		d="M90.1409 22.9897L90.5174 23.06L90.8182 23.1674L91.0571 23.3068L91.2597 23.4958L91.4048 23.7245L91.4955 24.0015L91.5276 24.3386L91.5065 24.5991L91.446 24.8239L91.3489 25.0193L91.2139 25.1902L90.9905 25.3841L90.7362 25.5364L90.4456 25.6483L91.7933 27.7198H90.8628L89.667 25.762H89.1465V27.7198H88.3472V25.1766H89.1465H89.7357L90.0336 25.152L90.2634 25.0847L90.4403 24.9819L90.5729 24.8338L90.6583 24.6263L90.6905 24.3386L90.6598 24.0745L90.5778 23.8809L90.449 23.7407L90.2777 23.6451L90.0411 23.5808L89.7188 23.5567H89.1465V25.1766H88.3472V22.964H89.6738L90.1409 22.9897Z"
		fill="currentColor" />
	<path fill-rule="evenodd" clip-rule="evenodd"
		d="M94.2304 28.4066V28.7947H92.3886V28.4066H93.132V26.2587L92.4616 26.671L92.2499 26.3248L93.185 25.7514H93.6215V28.4066H94.2304Z"
		fill="currentColor" />
	<path d="M118.989 54.528H111.309V73.728H118.989V54.528Z" stroke="currentColor" stroke-width="0.96"
		stroke-linecap="round" stroke-linejoin="round" />
	<path d="M115.149 73.728V78.528" stroke="currentColor" stroke-width="0.576" stroke-linecap="round"
		stroke-linejoin="round" />
	<path d="M115.149 54.528V49.728" stroke="currentColor" stroke-width="0.576" stroke-linecap="round"
		stroke-linejoin="round" />
	<path fill-rule="evenodd" clip-rule="evenodd"
		d="M123.741 61.3897L124.117 61.46L124.418 61.5674L124.657 61.7068L124.86 61.8958L125.005 62.1245L125.095 62.4015L125.128 62.7387L125.106 62.9991L125.046 63.2239L124.949 63.4193L124.814 63.5902L124.591 63.7841L124.336 63.9364L124.046 64.0483L125.393 66.1198H124.463L123.267 64.162H122.746V66.1198H121.947V63.5766H122.746H123.336L123.634 63.552L123.863 63.4847L124.04 63.3819L124.173 63.2338L124.258 63.0263L124.29 62.7387L124.26 62.4745L124.178 62.281L124.049 62.1407L123.878 62.0451L123.641 61.9809L123.319 61.9567H122.746V63.5766H121.947V61.364H123.274L123.741 61.3897Z"
		fill="currentColor" />
	<path fill-rule="evenodd" clip-rule="evenodd"
		d="M126.683 64.0898L126.972 64.1178L127.204 64.1957L127.4 64.3211L127.539 64.4757L127.627 64.6586L127.656 64.8593L127.636 65.0408L127.578 65.1953L127.483 65.3291L127.358 65.4395L127.216 65.5215L127.052 65.5759L127.235 65.6126L127.401 65.6821L127.545 65.7857L127.657 65.9267L127.727 66.099L127.753 66.3258L127.718 66.5745L127.616 66.7967L127.454 66.9834L127.232 67.1308L126.97 67.2219L126.65 67.2541L126.37 67.2276L126.105 67.1482L125.865 67.0156L125.665 66.8285L125.967 66.5639L126.109 66.6973L126.27 66.7892L126.446 66.8436L126.628 66.8617L126.811 66.844L126.958 66.7941L127.076 66.7151L127.166 66.6074L127.222 66.4743L127.241 66.308L127.22 66.1187L127.164 65.986L127.078 65.8949L126.898 65.8084L126.655 65.7766H126.392L126.449 65.413H126.635L126.837 65.3828L127.008 65.2947L127.095 65.2052L127.149 65.0872L127.169 64.9319L127.15 64.7924L127.1 64.6809L127.017 64.5914L126.852 64.5026L126.644 64.4712L126.459 64.4897L126.304 64.5419L126.161 64.6254L126.013 64.7448L125.75 64.4644L125.962 64.2977L126.185 64.1824L126.425 64.1133L126.683 64.0898Z"
		fill="currentColor" />
	<path d="M115.149 78.528V88.128" stroke="currentColor" stroke-width="0.576" stroke-linecap="round"
		stroke-linejoin="round" />
	<path d="M153.549 88.128V59.328" stroke="currentColor" stroke-width="0.576" stroke-linecap="round"
		stroke-linejoin="round" />
	<path d="M115.149 88.128H153.549" stroke="currentColor" stroke-width="0.576" stroke-linecap="round"
		stroke-linejoin="round" />
	<path d="M81.5493 78.528V88.128" stroke="currentColor" stroke-width="0.576" stroke-linecap="round"
		stroke-linejoin="round" />
	<path d="M81.5493 88.128H115.149" stroke="currentColor" stroke-width="0.576" stroke-linecap="round"
		stroke-linejoin="round" />
	<path d="M33.5493 25.728V1.728" stroke="currentColor" stroke-width="0.576" stroke-linecap="round"
		stroke-linejoin="round" />
	<path d="M33.5493 1.728H81.5493" stroke="currentColor" stroke-width="0.576" stroke-linecap="round"
		stroke-linejoin="round" />
	<path d="M81.5493 1.728V11.328" stroke="currentColor" stroke-width="0.576" stroke-linecap="round"
		stroke-linejoin="round" />
	<path d="M81.5493 44.928H115.149" stroke="currentColor" stroke-width="0.576" stroke-linecap="round"
		stroke-linejoin="round" />
	<path d="M153.549 1.728V30.528" stroke="currentColor" stroke-width="0.576" stroke-linecap="round"
		stroke-linejoin="round" />
	<path d="M81.5493 1.728H153.549" stroke="currentColor" stroke-width="0.576" stroke-linecap="round"
		stroke-linejoin="round" />
	<path d="M115.149 49.728V44.928" stroke="currentColor" stroke-width="0.576" stroke-linecap="round"
		stroke-linejoin="round" />
	<path d="M33.5493 64.128V88.128" stroke="currentColor" stroke-width="0.576" stroke-linecap="round"
		stroke-linejoin="round" />
	<path d="M33.5493 88.128H81.5493" stroke="currentColor" stroke-width="0.576" stroke-linecap="round"
		stroke-linejoin="round" />
	<path d="M81.5493 44.928V49.728" stroke="currentColor" stroke-width="0.576" stroke-linecap="round"
		stroke-linejoin="round" />
	<path d="M81.5493 40.128V44.928" stroke="currentColor" stroke-width="0.576" stroke-linecap="round"
		stroke-linejoin="round" />
	<path
		d="M115.149 89.856C116.104 89.856 116.877 89.0824 116.877 88.128C116.877 87.1737 116.104 86.4 115.149 86.4C114.195 86.4 113.421 87.1737 113.421 88.128C113.421 89.0824 114.195 89.856 115.149 89.856Z"
		fill="currentColor" />
	<path
		d="M81.5493 3.456C82.5036 3.456 83.2773 2.68235 83.2773 1.728C83.2773 0.773656 82.5036 0 81.5493 0C80.5949 0 79.8213 0.773656 79.8213 1.728C79.8213 2.68235 80.5949 3.456 81.5493 3.456Z"
		fill="currentColor" />
	<path
		d="M81.5493 46.656C82.5036 46.656 83.2773 45.8824 83.2773 44.928C83.2773 43.9737 82.5036 43.2 81.5493 43.2C80.5949 43.2 79.8213 43.9737 79.8213 44.928C79.8213 45.8824 80.5949 46.656 81.5493 46.656Z"
		fill="currentColor" />
	<path
		d="M81.5493 89.856C82.5036 89.856 83.2773 89.0824 83.2773 88.128C83.2773 87.1737 82.5036 86.4 81.5493 86.4C80.5949 86.4 79.8213 87.1737 79.8213 88.128C79.8213 89.0824 80.5949 89.856 81.5493 89.856Z"
		fill="currentColor" />
</svg>