<svg width="166" height="82" viewBox="0 0 166 82" fill="none" xmlns="http://www.w3.org/2000/svg">
	<path d="M81.479 0.480003H62.2791V8.16H81.479V0.480003Z" stroke="currentColor" stroke-width="0.96"
		stroke-linecap="round" stroke-linejoin="round" />
	<path d="M62.2791 4.32H57.4791" stroke="currentColor" stroke-width="0.576" stroke-linecap="round"
		stroke-linejoin="round" />
	<path d="M81.4791 4.32H86.2791" stroke="currentColor" stroke-width="0.576" stroke-linecap="round"
		stroke-linejoin="round" />
	<path fill-rule="evenodd" clip-rule="evenodd"
		d="M70.8708 10.2221L71.2472 10.2924L71.5481 10.3998L71.7869 10.5392L71.9895 10.7282L72.1347 10.9569L72.2254 11.2339L72.2575 11.571L72.2363 11.8314L72.1759 12.0563L72.0787 12.2517L71.9438 12.4226L71.7204 12.6164L71.4661 12.7688L71.1754 12.8806L72.5232 14.9522H71.5927L70.3968 12.9944H69.8764V14.9522H69.077V12.409H69.8764H70.4656L70.7634 12.3844L70.9932 12.3171L71.1701 12.2143L71.3028 12.0661L71.3882 11.8586L71.4203 11.571L71.3897 11.3068L71.3077 11.1133L71.1788 10.9731L71.0076 10.8775L70.771 10.8132L70.4486 10.789H69.8764V12.409H69.077V10.1964H70.4036L70.8708 10.2221Z"
		fill="currentColor" />
	<path fill-rule="evenodd" clip-rule="evenodd"
		d="M74.9602 15.6389V16.0271H73.1184V15.6389H73.8619V13.491L73.1914 13.9034L72.9797 13.5572L73.9148 12.9838H74.3513V15.6389H74.9602Z"
		fill="currentColor" />
	<path d="M152.519 42.72H144.839V61.92H152.519V42.72Z" stroke="currentColor" stroke-width="0.96"
		stroke-linecap="round" stroke-linejoin="round" />
	<path d="M148.679 61.92V66.72" stroke="currentColor" stroke-width="0.576" stroke-linecap="round"
		stroke-linejoin="round" />
	<path d="M148.679 42.72V37.92" stroke="currentColor" stroke-width="0.576" stroke-linecap="round"
		stroke-linejoin="round" />
	<path fill-rule="evenodd" clip-rule="evenodd"
		d="M157.271 49.5817L157.647 49.652L157.948 49.7594L158.187 49.8988L158.389 50.0878L158.535 50.3165L158.625 50.5935L158.657 50.9306L158.636 51.1911L158.576 51.416L158.479 51.6114L158.344 51.7822L158.12 51.9761L157.866 52.1284L157.575 52.2403L158.923 54.3118H157.993L156.797 52.354H156.276V54.3118H155.477V51.7686H156.276H156.866L157.163 51.744L157.393 51.6767L157.57 51.5739L157.703 51.4258L157.788 51.2183L157.82 50.9306L157.79 50.6665L157.708 50.473L157.579 50.3327L157.408 50.2371L157.171 50.1729L156.849 50.1487H156.276V51.7686H155.477V49.556H156.804L157.271 49.5817Z"
		fill="currentColor" />
	<path fill-rule="evenodd" clip-rule="evenodd"
		d="M161.034 53.4879V54.3016H161.395V54.6852H161.034V55.3867H160.559L160.557 54.6852H159.293V54.3417L160.169 52.2818L160.586 52.447L159.809 54.3016H160.559L160.619 53.4879H161.034Z"
		fill="currentColor" />
	<path d="M119.879 0.480003H100.679V8.16H119.879V0.480003Z" stroke="currentColor" stroke-width="0.96"
		stroke-linecap="round" stroke-linejoin="round" />
	<path d="M100.679 4.32H95.8792" stroke="currentColor" stroke-width="0.576" stroke-linecap="round"
		stroke-linejoin="round" />
	<path d="M119.879 4.32H124.679" stroke="currentColor" stroke-width="0.576" stroke-linecap="round"
		stroke-linejoin="round" />
	<path fill-rule="evenodd" clip-rule="evenodd"
		d="M109.271 10.2221L109.647 10.2924L109.948 10.3998L110.187 10.5392L110.39 10.7282L110.535 10.9569L110.625 11.2339L110.658 11.571L110.636 11.8314L110.576 12.0563L110.479 12.2517L110.344 12.4226L110.12 12.6164L109.866 12.7688L109.575 12.8806L110.923 14.9522H109.993L108.797 12.9944H108.276V14.9522H107.477V12.409H108.276H108.866L109.163 12.3844L109.393 12.3171L109.57 12.2143L109.703 12.0661L109.788 11.8586L109.82 11.571L109.79 11.3068L109.708 11.1133L109.579 10.9731L109.408 10.8775L109.171 10.8132L108.849 10.789H108.276V12.409H107.477V10.1964H108.804L109.271 10.2221Z"
		fill="currentColor" />
	<path fill-rule="evenodd" clip-rule="evenodd"
		d="M112.222 12.9222L112.515 12.9528L112.747 13.0379L112.939 13.1751L113.076 13.3489L113.161 13.5534L113.19 13.782L113.173 13.9801L113.121 14.1736L113.034 14.363L112.898 14.575L112.729 14.7874L112.493 15.0425L111.878 15.6302H113.261L113.203 16.0271H111.311V15.6522L111.987 14.9821L112.235 14.7122L112.404 14.5055L112.538 14.3055L112.617 14.1426L112.663 13.9786L112.679 13.813L112.663 13.6653L112.619 13.547L112.548 13.4513L112.454 13.3795L112.336 13.3349L112.187 13.3191L111.993 13.3391L111.844 13.3939L111.712 13.4872L111.572 13.6365L111.249 13.392L111.444 13.189L111.659 13.0435L111.907 12.9543L112.222 12.9222Z"
		fill="currentColor" />
	<path d="M100.679 29.28H81.4791V36.96H100.679V29.28Z" stroke="currentColor" stroke-width="0.96"
		stroke-linecap="round" stroke-linejoin="round" />
	<path d="M81.4791 33.12H76.6791" stroke="currentColor" stroke-width="0.576" stroke-linecap="round"
		stroke-linejoin="round" />
	<path d="M100.679 33.12H105.479" stroke="currentColor" stroke-width="0.576" stroke-linecap="round"
		stroke-linejoin="round" />
	<path fill-rule="evenodd" clip-rule="evenodd"
		d="M90.0707 39.0221L90.4472 39.0924L90.748 39.1998L90.9869 39.3392L91.1895 39.5282L91.3346 39.7569L91.4253 40.0339L91.4574 40.371L91.4363 40.6314L91.3758 40.8563L91.2787 41.0517L91.1437 41.2226L90.9204 41.4164L90.666 41.5688L90.3754 41.6806L91.7232 43.7522H90.7926L89.5968 41.7944H89.0764V43.7522H88.277V41.209H89.0764H89.6656L89.9634 41.1844L90.1932 41.1171L90.3701 41.0143L90.5027 40.8661L90.5882 40.6586L90.6203 40.371L90.5897 40.1068L90.5077 39.9133L90.3788 39.7731L90.2076 39.6775L89.971 39.6132L89.6486 39.589H89.0764V41.209H88.277V38.9964H89.6036L90.0707 39.0221Z"
		fill="currentColor" />
	<path fill-rule="evenodd" clip-rule="evenodd"
		d="M93.0131 41.7222L93.3015 41.7502L93.5335 41.828L93.7297 41.9535L93.8688 42.1081L93.9565 42.291L93.9856 42.4917L93.9655 42.6731L93.9077 42.8277L93.8125 42.9615L93.6881 43.0719L93.5456 43.1539L93.3816 43.2083L93.5649 43.245L93.7308 43.3145L93.8745 43.4181L93.9867 43.5591L94.057 43.7314L94.0827 43.9582L94.0483 44.2069L93.9459 44.4291L93.7837 44.6158L93.5623 44.7632L93.3003 44.8543L92.9802 44.8864L92.6994 44.86L92.4345 44.7806L92.1948 44.6479L91.9945 44.4609L92.2965 44.1963L92.4386 44.3297L92.5996 44.4215L92.7761 44.476L92.9579 44.4941L93.1408 44.4764L93.2875 44.4265L93.4058 44.3475L93.4961 44.2398L93.5517 44.1067L93.5713 43.9404L93.5502 43.7511L93.4942 43.6184L93.4081 43.5273L93.2274 43.4408L92.9844 43.409H92.7221L92.7791 43.0454H92.9647L93.1665 43.0152L93.3381 42.9271L93.4251 42.8375L93.4787 42.7196L93.4984 42.5643L93.4802 42.4248L93.43 42.3133L93.3472 42.2237L93.1817 42.1349L92.9738 42.1036L92.7893 42.1221L92.634 42.1742L92.4904 42.2578L92.343 42.3772L92.0803 42.0968L92.2916 41.9301L92.5146 41.8148L92.7546 41.7456L93.0131 41.7222Z"
		fill="currentColor" />
	<path
		d="M33.4791 61.92C38.7811 61.92 43.0792 57.6219 43.0792 52.32C43.0792 47.0181 38.7811 42.72 33.4791 42.72C28.1772 42.72 23.8792 47.0181 23.8792 52.32C23.8792 57.6219 28.1772 61.92 33.4791 61.92Z"
		stroke="currentColor" stroke-width="0.96" stroke-linecap="round" stroke-linejoin="round" />
	<path d="M33.479 61.92V71.52" stroke="currentColor" stroke-width="0.576" stroke-linecap="round"
		stroke-linejoin="round" />
	<path d="M33.479 42.72V33.12" stroke="currentColor" stroke-width="0.576" stroke-linecap="round"
		stroke-linejoin="round" />
	<path d="M14.2791 61.92L18.1191 55.2" stroke="currentColor" stroke-width="0.576" stroke-linecap="round"
		stroke-linejoin="round" />
	<path d="M14.2791 61.92L10.4391 55.2" stroke="currentColor" stroke-width="0.576" stroke-linecap="round"
		stroke-linejoin="round" />
	<path d="M14.2791 61.92V42.72" stroke="currentColor" stroke-width="0.576" stroke-linecap="round"
		stroke-linejoin="round" />
	<path fill-rule="evenodd" clip-rule="evenodd"
		d="M7.88592 43.7964V46.9909L7.86287 47.3102L7.79711 47.5945L7.6909 47.8492L7.54161 48.0794L7.35452 48.2729L7.12586 48.4331L6.87075 48.5477L6.57632 48.6195L6.23503 48.6448L5.88618 48.6198L5.58986 48.5488L5.33739 48.4365L5.11137 48.2786L4.92693 48.0862L4.78066 47.856L4.67748 47.6013L4.61361 47.3151L4.59131 46.9909V43.7964H5.39068V46.8461L5.41714 47.2294L5.48706 47.5117L5.59062 47.7165L5.70174 47.8405L5.84158 47.9301L6.01619 47.9868L6.23503 48.0076L6.45387 47.9868L6.62885 47.9301L6.76907 47.8405L6.88095 47.7165L6.98564 47.5113L7.05594 47.229L7.08278 46.8461V43.7964H7.88592Z"
		fill="currentColor" />
	<path fill-rule="evenodd" clip-rule="evenodd"
		d="M9.62341 46.1582L9.75721 46.1813L9.85813 46.2467L9.92464 46.3449L9.94732 46.467L9.92503 46.5891L9.85813 46.6896L9.75684 46.7565L9.62341 46.78L9.49303 46.7569L9.39135 46.6896L9.32408 46.5891L9.30103 46.467L9.32408 46.3449L9.39135 46.2467L9.49303 46.1809L9.62341 46.1582Z"
		fill="currentColor" />
	<path fill-rule="evenodd" clip-rule="evenodd"
		d="M9.9673 47.2985V49.2654H10.6V49.6271H8.77637V49.2654H9.47331V47.6598H8.79828V47.2985H9.9673Z"
		fill="currentColor" />
	<path d="M47.8792 33.12H76.6791" stroke="currentColor" stroke-width="0.576" stroke-linecap="round"
		stroke-linejoin="round" />
	<path d="M134.279 18.72H148.679" stroke="currentColor" stroke-width="0.576" stroke-linecap="round"
		stroke-linejoin="round" />
	<path d="M134.279 18.72V33.12" stroke="currentColor" stroke-width="0.576" stroke-linecap="round"
		stroke-linejoin="round" />
	<path d="M148.679 37.92V18.72" stroke="currentColor" stroke-width="0.576" stroke-linecap="round"
		stroke-linejoin="round" />
	<path d="M105.479 33.12H134.279" stroke="currentColor" stroke-width="0.576" stroke-linecap="round"
		stroke-linejoin="round" />
	<path d="M134.279 4.32H124.679" stroke="currentColor" stroke-width="0.576" stroke-linecap="round"
		stroke-linejoin="round" />
	<path d="M134.279 4.32V18.72" stroke="currentColor" stroke-width="0.576" stroke-linecap="round"
		stroke-linejoin="round" />
	<path d="M33.4791 18.72V33.12" stroke="currentColor" stroke-width="0.576" stroke-linecap="round"
		stroke-linejoin="round" />
	<path d="M47.8792 18.72V33.12" stroke="currentColor" stroke-width="0.576" stroke-linecap="round"
		stroke-linejoin="round" />
	<path d="M33.4791 18.72H47.8791" stroke="currentColor" stroke-width="0.576" stroke-linecap="round"
		stroke-linejoin="round" />
	<path d="M47.8792 4.32H57.4792" stroke="currentColor" stroke-width="0.576" stroke-linecap="round"
		stroke-linejoin="round" />
	<path d="M47.8792 4.32V18.72" stroke="currentColor" stroke-width="0.576" stroke-linecap="round"
		stroke-linejoin="round" />
	<path d="M86.2792 4.32H95.8792" stroke="currentColor" stroke-width="0.576" stroke-linecap="round"
		stroke-linejoin="round" />
	<path d="M33.4791 71.52V81.12" stroke="currentColor" stroke-width="0.576" stroke-linecap="round"
		stroke-linejoin="round" />
	<path d="M33.4791 81.12H148.679" stroke="currentColor" stroke-width="0.576" stroke-linecap="round"
		stroke-linejoin="round" />
	<path d="M148.679 81.12V66.72" stroke="currentColor" stroke-width="0.576" stroke-linecap="round"
		stroke-linejoin="round" />
	<path
		d="M134.279 20.448C135.233 20.448 136.007 19.6743 136.007 18.72C136.007 17.7657 135.233 16.992 134.279 16.992C133.325 16.992 132.551 17.7657 132.551 18.72C132.551 19.6743 133.325 20.448 134.279 20.448Z"
		fill="currentColor" />
	<path
		d="M47.8791 20.448C48.8335 20.448 49.6071 19.6743 49.6071 18.72C49.6071 17.7657 48.8335 16.992 47.8791 16.992C46.9248 16.992 46.1511 17.7657 46.1511 18.72C46.1511 19.6743 46.9248 20.448 47.8791 20.448Z"
		fill="currentColor" />
</svg>