<!-- <svg width="150" height="160" viewBox="0 0 150 160" fill="none" xmlns="http://www.w3.org/2000/svg">
	<path
		d="M44.7402 40.667C44.7409 40.8756 44.7443 41.0849 44.7559 41.2939C44.8828 43.5825 45.664 45.7853 47.0029 47.6436L47.002 47.6445L49.6318 51.333H24C21.0545 51.333 18.666 53.7215 18.666 56.667V142C18.666 144.946 21.0545 147.333 24 147.333H88C90.9454 147.333 93.333 144.945 93.333 142V102.659C97.3737 101.706 101.228 99.5604 103.615 95.4258C102.008 98.2106 102.266 101.559 104 104.028V142C104 150.836 96.8364 158 88 158H24C15.1634 158 8 150.837 8 142V56.667C8 47.8304 15.1634 40.667 24 40.667H44.7402ZM34.7197 126C37.6651 126 40.0526 128.388 40.0527 131.333C40.0527 134.279 37.6652 136.667 34.7197 136.667H34.666C31.7207 136.667 29.333 134.278 29.333 131.333C29.3332 128.388 31.7208 126 34.666 126H34.7197ZM56.0527 126C58.9981 126 61.3865 128.388 61.3867 131.333C61.3867 134.279 58.9983 136.667 56.0527 136.667H56C53.0545 136.667 50.666 134.279 50.666 131.333C50.6662 128.388 53.0546 126 56 126H56.0527ZM77.333 104.667C80.2785 104.667 82.666 107.054 82.666 110V131.333C82.666 134.279 80.2785 136.667 77.333 136.667C74.3875 136.667 72 134.279 72 131.333V110C72 107.054 74.3875 104.667 77.333 104.667ZM34.7197 104.667C37.6652 104.667 40.0527 107.054 40.0527 110C40.0527 112.946 37.6652 115.333 34.7197 115.333H34.666C31.7207 115.333 29.333 112.945 29.333 110C29.333 107.055 31.7207 104.667 34.666 104.667H34.7197ZM56.0527 104.667C58.9983 104.667 61.3867 107.054 61.3867 110C61.3867 112.946 58.9983 115.333 56.0527 115.333H56C53.0545 115.333 50.666 112.946 50.666 110C50.666 107.054 53.0545 104.667 56 104.667H56.0527ZM34.7197 83.333C37.6652 83.333 40.0527 85.7215 40.0527 88.667C40.0526 91.6124 37.6651 94 34.7197 94H34.666C31.7208 93.9998 29.3332 91.6122 29.333 88.667C29.333 85.7216 31.7207 83.3332 34.666 83.333H34.7197ZM52.0332 85.1006C54.1672 87.7915 56.781 90.3144 59.6846 92.5703C58.7321 93.4566 57.4563 94 56.0527 94H56C53.0546 94 50.6662 91.6124 50.666 88.667C50.666 87.2961 51.1831 86.0455 52.0332 85.1006ZM75.4512 83.6748C77.0095 84.3616 78.6705 84.7975 80.373 84.9609L81.3066 85.0518C81.686 85.463 82.0005 85.9342 82.2363 86.4492C80.0891 85.8506 77.7548 84.9352 75.3887 83.6992C75.4095 83.6911 75.4302 83.6827 75.4512 83.6748ZM48.1895 63.4258C46.4428 66.4512 46.0128 69.6243 46.374 72.667H34.666C31.7207 72.6668 29.333 70.2784 29.333 67.333C29.3332 64.3878 31.7208 62.0002 34.666 62H49.0127L48.1895 63.4258ZM64.8408 72.667H62.9248C62.5224 71.8861 62.3522 71.3223 62.2939 70.9951L62.9004 69.9443L64.8408 72.667ZM93.8955 48.2471L93.9033 48.248L93.9053 48.251L104 62.3975V71.1973L93.333 70.1533V56.667C93.333 53.7216 90.9454 51.3332 88 51.333H69.2803L65.0918 45.458L93.8955 48.2471ZM77.333 62C80.2784 62 82.6658 64.3876 82.666 67.333C82.666 67.9451 82.5609 68.5325 82.3711 69.0801L81.917 69.0361L81.9014 69.0352V69.0342L76.8857 62H77.333Z"
		fill="#00BBA7" />
	<g clip-path="url(#clip0_4006_20)">
		<path
			d="M118.69 80.675C119.468 80.7595 120.254 80.6138 120.95 80.2561C121.646 79.8984 122.222 79.3443 122.606 78.6625C122.991 77.9807 123.167 77.2011 123.112 76.4203C123.058 75.6396 122.775 74.8919 122.3 74.27L100.418 43.6041C99.7526 42.6713 98.8951 41.8921 97.903 41.3194C96.911 40.7466 95.8074 40.3936 94.6671 40.2841L57.1798 36.6541C56.4071 36.5682 55.6261 36.7092 54.9324 37.0601C54.2386 37.4109 53.6621 37.9563 53.2734 38.6296C52.8847 39.3029 52.7006 40.0749 52.7436 40.8511C52.7867 41.6273 53.055 42.3742 53.5158 43.0004L75.3871 73.6781C76.052 74.6109 76.9095 75.3901 77.9016 75.9629C78.8937 76.5356 79.9972 76.8887 81.1375 76.9981L118.69 80.675Z"
			stroke="#00BBA7" stroke-width="8" stroke-linecap="round" stroke-linejoin="round" />
		<path d="M122.543 78.641L110.543 99.4256" stroke="#00BBA7" stroke-width="8" stroke-linecap="round"
			stroke-linejoin="round" />
		<path
			d="M62.1176 55.3013L55.1176 67.4256C53.5263 70.1818 54.19 74.0894 56.9626 78.2888C59.7353 82.4882 64.3898 86.6353 69.9022 89.8179C75.4146 93.0005 81.3334 94.9579 86.3565 95.2594C91.3796 95.5609 95.0955 94.1818 96.6868 91.4256L103.687 79.3013"
			stroke="#00BBA7" stroke-width="8" stroke-linecap="round" stroke-linejoin="round" />
	</g>
	<defs>
		<clipPath id="clip0_4006_20">
			<rect width="96" height="96" fill="white" transform="translate(66.333) rotate(30)" />
		</clipPath>
	</defs>
</svg> -->

<svg xmlns="http://www.w3.org/2000/svg" width="24" height="24" viewBox="0 0 24 24" fill="none" stroke="#00BBA7"
	stroke-width="2" stroke-linecap="round" stroke-linejoin="round"
	class="lucide lucide-calculator-icon lucide-calculator">
	<rect width="16" height="20" x="4" y="2" rx="2" />
	<line x1="8" x2="16" y1="6" y2="6" />
	<line x1="16" x2="16" y1="14" y2="18" />
	<path d="M16 10h.01" />
	<path d="M12 10h.01" />
	<path d="M8 10h.01" />
	<path d="M12 14h.01" />
	<path d="M8 14h.01" />
	<path d="M12 18h.01" />
	<path d="M8 18h.01" />
</svg>
