<svg viewBox="0 0 24 24" xmlns="http://www.w3.org/2000/svg">
	<path
		d="M8.33164 12.8325C8.33164 12.3465 8.13857 11.8804 7.79492 11.5367C7.45127 11.1931 6.98517 11 6.49917 11C6.01317 11 5.54707 11.1931 5.20342 11.5367C4.85977 11.8804 4.6667 12.3465 4.6667 12.8325H1M11.9982 12.8325C11.9982 12.3465 11.8052 11.8804 11.4615 11.5367C11.1179 11.1931 10.6518 11 10.1658 11C9.67978 11 9.21369 11.1931 8.87003 11.5367C8.52638 11.8804 8.33331 12.3465 8.33331 12.8325M15.665 12.8325C15.665 12.3465 15.4719 11.8804 15.1282 11.5367C14.7846 11.1931 14.3185 11 13.8325 11C13.3465 11 12.8804 11.1931 12.5367 11.5367C12.1931 11.8804 12 12.3465 12 12.8325M19.3316 12.8325C19.3316 12.3465 19.1385 11.8804 18.7948 11.5367C18.4512 11.1931 17.9851 11 17.4991 11C17.0131 11 16.547 11.1931 16.2033 11.5367C15.8597 11.8804 15.6666 12.3465 15.6666 12.8325M19.3333 12.8325H23"
		stroke="currentColor" stroke-linecap="round" stroke-linejoin="round" stroke-width="2" />
</svg>
